<?xml version="1.0" encoding="utf-8"?>
<!-- Generator: Adobe Illustrator 27.5.0, SVG Export Plug-In . SVG Version: 6.00 Build 0)  -->
<svg version="1.1" xmlns="http://www.w3.org/2000/svg" xmlns:xlink="http://www.w3.org/1999/xlink" x="0px" y="0px"
	 viewBox="0 0 1122 800" style="enable-background:new 0 0 1122 1122;" xml:space="preserve">
<g id="BG">
	<rect style="fill:#FFFFFF;" width="1122" height="1122"/>
</g>
<g id="Object">
	<g>
		<path style="fill:#272525;" d="M294.434,656.701c-15.39-5.738-33.565-0.826-44.037,11.79c-10.691,12.88-12.473,31.63-3.756,46.084
			c8.729,14.473,25.65,21.68,42.147,18.58c18.223-3.425,30.887-19.761,31.841-37.796c0.038-0.371,0.062-0.752,0.053-1.154
			c0.012-0.494-0.023-0.957-0.081-1.404C319.728,676.622,309.809,662.433,294.434,656.701z M280.798,717.717
			c-12.887-0.024-23.567-10.746-23.543-23.632c0.024-12.871,10.739-23.596,23.632-23.543c13.115,0.054,23.269,10.725,23.543,23.632
			C304.108,707.058,293.916,717.742,280.798,717.717z"/>
		<path style="fill:#272525;" d="M307.668,618.403c-32.215-12.033-70.321-1.675-92.075,24.913
			c-22.072,26.976-25.446,65.84-7.187,95.817c18.057,29.645,53.062,44.791,87.046,38.34c38.524-7.313,66.223-42.333,66.683-81.088
			C361.852,661.647,340.24,630.57,307.668,618.403z M302.404,758.727c-26.678,9.598-56.387,1.467-74.594-20.2
			c-17.919-21.324-19.839-52.927-5.591-76.627c14.215-23.645,42.746-36.59,69.911-31.049c31.15,6.356,53.494,33.794,53.751,65.503
			C345.556,723.745,328.483,749.345,302.404,758.727z"/>
		<path style="fill:#272525;" d="M804.827,657.66c-15.39-5.738-33.565-0.826-44.036,11.79c-10.691,12.88-12.473,31.629-3.756,46.084
			c8.728,14.473,25.65,21.68,42.147,18.58c18.222-3.425,30.887-19.761,31.841-37.796c0.038-0.371,0.061-0.752,0.053-1.154
			c0.013-0.494-0.023-0.957-0.081-1.404C830.12,677.58,820.201,663.392,804.827,657.66z M791.191,718.676
			c-12.887-0.024-23.567-10.746-23.543-23.632c0.024-12.871,10.739-23.596,23.632-23.543c13.115,0.054,23.269,10.725,23.543,23.632
			C814.501,708.017,804.309,718.701,791.191,718.676z"/>
		<path style="fill:#272525;" d="M818.06,619.362c-32.215-12.033-70.321-1.675-92.075,24.913
			c-22.073,26.976-25.446,65.84-7.187,95.817c18.057,29.645,53.062,44.791,87.046,38.34c38.524-7.313,66.223-42.333,66.683-81.088
			C872.245,662.606,850.633,631.529,818.06,619.362z M812.796,759.686c-26.678,9.598-56.387,1.467-74.594-20.2
			c-17.919-21.324-19.839-52.927-5.591-76.627c14.215-23.645,42.746-36.591,69.911-31.049c31.151,6.355,53.494,33.794,53.752,65.503
			C855.949,724.704,838.876,750.304,812.796,759.686z"/>
		<path style="fill:#272525;" d="M195.464,519.346c-0.003-1.542-1.236-2.606-2.704-2.714c-20.421-1.499-61.649,0.358-62.299,28.391
			c-0.034,1.464,1.261,2.711,2.704,2.714c19.581,0.037,39.162,0.073,58.743,0.11c0.824,0.002,1.447-0.306,1.883-0.768
			c0.011-0.009,0.023-0.013,0.034-0.022c2.62-2.12,1.473-10.38,1.525-13.205C195.442,529.019,195.472,524.182,195.464,519.346z
			 M189.53,543.708c-0.05,0.065-0.086,0.132-0.127,0.198c-0.005-0.027,0.036-0.109,0.144-0.243
			C189.542,543.682,189.536,543.69,189.53,543.708z M189.976,531.162c-0.037,2.74-0.082,5.481-0.189,8.219
			c-0.038,0.989-0.203,2.043-0.194,3.045c-17.82-0.034-35.639-0.067-53.459-0.1c2.206-13.005,17.95-17.349,29.484-19.159
			c7.989-1.254,16.291-1.68,24.413-1.276C190.026,524.981,190.018,528.072,189.976,531.162z"/>
		<path style="fill:#272525;" d="M964.745,523.102c-10.123-5.369-32.758-12.19-39.542,1.916
			c-5.907,12.285,9.278,24.841,18.461,29.904c10.583,5.835,32.401,12.552,40.192-1.159c0.12-0.212,0.202-0.421,0.264-0.628
			c0.003-0.007,0.008-0.012,0.01-0.019C989.481,540.449,974.322,528.182,964.745,523.102z M979.101,551.15
			c-6.24,10.628-25.732,3.106-33.481-1.335c-6.264-3.59-20.053-13.783-15.387-22.729c2.389-4.58,9.048-5.044,13.568-4.765
			c6.94,0.427,13.776,2.893,19.776,6.322C970.495,532.595,982.505,541.743,979.101,551.15z"/>
		<path style="fill:#272525;" d="M530.832,530.401l-22.213-0.042c-3.576-0.007-6.506,2.913-6.513,6.489
			c-0.007,3.575,2.913,6.507,6.489,6.513l22.212,0.042c3.576,0.007,6.507-2.913,6.513-6.489
			C537.328,533.339,534.408,530.408,530.832,530.401z"/>
		<path style="fill:#272525;" d="M676.878,436.571c-16.014-14.985-32.15-29.768-48.15-44.752
			c-9.022-8.449-19.105-14.266-31.415-16.296c-9.004-1.485-18.061-1.504-27.149-1.521c-19.833-0.037-39.666-0.074-59.499-0.112
			c-11.687-0.022-22.553,4.398-26.532,16.46c-2.173,6.586-1.175,14.791-1.188,21.608c-0.021,11.13-0.042,22.26-0.063,33.39
			c-0.012,6.675-0.69,13.755,0.323,20.387c1.866,12.209,12.372,19.935,24.336,20.114c4.433,0.066,8.871,0.017,13.304,0.025
			c18.982,0.036,37.965,0.072,56.947,0.107c36.26,0.068,72.587,0.797,108.843,0.204c0.697-0.012,1.396,0.003,2.094,0.004
			c0.49,0.001,0.95-0.044,1.395-0.112c7.156-0.804,13.092-5.209,13.357-13.096c0.252-7.527-4.375-14.839-9.268-20.168
			C688.912,447.042,682.595,441.921,676.878,436.571z M604.678,469.779c-32.202-0.061-64.405-0.181-96.608-0.181
			c-5.111,0-8.676-2.664-8.966-8.071c-0.376-6.987,0.026-14.107,0.04-21.102c0.019-10.219,0.038-20.439,0.057-30.658
			c0.009-4.568-1.492-13.083,1.735-16.941c3.479-4.161,11.648-2.678,16.425-2.669c10.033,0.019,20.066,0.038,30.099,0.056
			c8.59,0.016,17.18,0.032,25.77,0.049c8.606,0.016,17.317-0.055,25.693,2.175c9.809,2.612,16.269,8.757,23.438,15.869
			c7.742,7.681,16.101,14.565,24.042,21.997c11.874,11.111,24.585,21.732,35.827,33.475c1.7,1.776,3.279,3.874,4.263,6.157
			C659.222,469.882,631.95,469.83,604.678,469.779z"/>
		<path style="fill:#272525;" d="M452.113,400.494c0.012-6.348,0.015-12.407-3.572-18.057c-4.945-7.79-13.195-10.493-21.939-10.51
			c-15.413-0.029-30.826-0.058-46.239-0.087c-17.557-0.033-34.206,1.271-50.152,9.652c-21.081,11.08-36.966,31.708-42.129,54.974
			c-2.063,9.296-3.252,20.341-1.732,29.881c1.809,11.349,11.481,18.72,22.657,19.13c10.069,0.369,20.215,0.038,30.289,0.057
			c29.65,0.056,59.3,0.112,88.95,0.167c0.311,0.017,0.632,0.018,0.965,0.002c0.595,0.001,1.151-0.057,1.679-0.155
			c11.968-1.329,20.639-10.421,21.105-22.743c0.177-4.686,0.018-9.411,0.026-14.1C452.053,432.634,452.083,416.564,452.113,400.494z
			 M429.242,469.449c-22.786-0.043-45.572-0.086-68.358-0.128c-13.749-0.026-27.498-0.051-41.247-0.077
			c-3.289-0.006-6.619,0.14-9.905-0.019c-5.592-0.27-7.494-3.638-7.484-8.871c0.038-19.987,5.175-38.315,19.693-52.778
			c12.997-12.948,30.302-19.486,48.522-19.502c13.135-0.012,26.271,0.05,39.406,0.074c5.868,0.011,11.735,0.015,17.603,0.033
			c4.492,0.013,8.027,1.602,8.398,6.704c0.98,13.476-0.051,27.402-0.077,40.909c-0.014,7.34-0.028,14.681-0.042,22.021
			C435.743,462.803,436.126,469.115,429.242,469.449z"/>
		<path style="fill:#272525;" d="M1033.703,614.69c0.724-2.229,1.097-4.672,1.102-7.239c0.014-7.477,1.728-17.646-2.031-24.482
			c-3.459-6.293-10.317-9.258-16.82-8.501c-0.003-5.524-0.085-11.041-0.352-16.535c-1.74-35.892-31.704-64.268-67.466-64.785
			c-10.396-0.02-20.791-0.039-31.186-0.058c-15.683-0.03-31.367-0.059-47.05-0.089c-1.083-0.657-2.387-1.083-3.923-1.161
			c-9.746-0.496-16.927-1.636-26.264-3.459c-17.138-3.345-34.606-8.345-49.261-18.134c-7.536-5.034-12.369-11.271-17.15-18.833
			c-6.456-10.214-13.666-19.987-21.517-29.173c-14.328-16.763-31.183-31.401-49.746-43.305
			c-39.895-25.585-86.344-37.152-133.375-36.696c-25.147,0.244-50.308-0.153-75.456-0.142c-21.487,0.01-43.007,0.924-64.488,1.407
			c-15.156,0.341-30.418,0.11-45.525,1.57c-27.163,2.625-54.356,8.248-79.605,18.768c-30.786,12.827-59.982,34.74-68.386,68.668
			c-5.271,21.28-11.611,42.07-32.779,53.329c-7.684,4.087-16.259,5.633-24.895,5.699c-0.565,0.004-1.094,0.064-1.599,0.158
			c-1.553-0.003-3.106-0.006-4.659-0.009c-13.498-0.025-26.665,2.673-38.327,9.808c-13.752,8.412-24.154,21.537-29.295,36.803
			c-3.101,9.207-3.374,18.666-3.392,28.245c-0.007,3.579-0.024,7.158-0.041,10.737c-5.659-1.083-11.826,0.625-15.939,5.446
			c-5.671,6.647-4.052,16.671-4.067,24.766c-0.008,4.473-0.188,8.865,2.052,12.94c2.908,5.29,8.654,8.744,14.702,8.755
			c1.324-0.065,2.572-0.249,3.747-0.533c1.278,9.985,4.735,19.505,9.945,27.894c-0.966,0.406-1.714,1.314-1.649,2.46
			c0.973,17.112,4.272,35.769,21.623,43.328c12.319,5.367,24.679,4.528,37.782,4.552c0.26,0,0.515-0.046,0.76-0.12l20.764,0.039
			c-0.905-18.091,3.307-36.473,12.698-52.3c19.341-32.6,58.16-50.449,95.118-42.809c33.082,6.839,58.861,31.39,68.748,62.626
			c0.728,2.849,1.343,5.736,1.817,8.662c0.133,0.822,0.463,1.588,0.925,2.281c1.027,5.447,1.594,11.041,1.64,16.739
			c-0.021,1.72-0.104,3.433-0.218,5.141l25.75,0.951c0.001-0.011-0.003-0.023-0.002-0.034c29.393,0.847,58.853,0.352,88.254,0.407
			c48.986,0.092,97.972,0.184,146.958,0.276c11.516,0.022,23.033,0.043,34.549,0.065c0.06,0,0.125-0.021,0.186-0.026l17.371,0.033
			l0-0.18l15.694,0.029c-0.447-7.576,0.013-15.208,1.353-22.693c0.497-0.713,0.85-1.508,0.992-2.362
			c0.754-4.548,1.844-9.004,3.239-13.338c1.869-5.113,4.183-10.078,6.968-14.81c19.187-32.6,57.694-50.45,94.356-42.811
			c42.042,8.761,72.196,46.59,72.542,90.307c-0.024,2.023-0.126,4.037-0.277,6.044l21.967,0.041
			c0.003-0.058,0.006-0.117,0.009-0.175c3.553,0.107,7.106,0.214,10.66,0.32c0.198,0.049,0.395,0.082,0.583,0.083
			c15.469,0.029,30.939,0.096,46.408,0.12c17.119,0.026,38.188-1.039,48.433-17.08c7.65-11.977,6.404-27.513,3.978-40.875
			c-0.006-0.279-0.058-0.546-0.156-0.796c-0.126-0.544-0.368-0.96-0.69-1.253c1.11-2.545,2.066-5.157,2.864-7.824l15.225,0.029
			c7.747,0.015,14.097-6.312,14.112-14.06C1042.001,621.842,1038.585,616.916,1033.703,614.69z M96.976,623.77
			c-11.811-0.022-11.355-11.929-11.339-20.267c0.016-8.543-0.851-21.244,11.417-21.268c1.163-0.002,2.203,0.115,3.14,0.33
			c-0.067,12.687-0.144,25.376-0.037,38.059c0.007,0.886,0.036,1.77,0.078,2.652C99.267,623.539,98.188,623.711,96.976,623.77z
			 M723.68,416.289c8.128,7.655,15.699,15.933,22.578,24.728c2.434,3.111,4.658,6.371,6.824,9.671
			c-32.21-12.18-59.641-35.76-74.305-66.512C695.076,392.882,710.215,403.608,723.68,416.289z M449.325,669.377
			c-8.617-0.016-17.234-0.032-25.851-0.049c-8.473-48.95-49.912-84.74-96.168-98.198c-51.848-15.085-110.753-4.174-151.232,32.348
			c-17.728,15.995-31.193,36.688-37.232,59.769c-6.867-4.736-12.586-11.095-16.583-18.595c-4.733-8.88-5.858-18.335-5.84-28.201
			c0.019-9.879,0.037-19.757,0.056-29.635c0.037-19.957-2.429-40.882,10.115-57.975c10.123-13.795,26.138-20.9,42.99-20.902
			c14.193-0.002,28.386,0.053,42.579,0.08c29.637,0.056,59.274,0.111,88.911,0.167c39.965,0.075,79.931,0.15,119.896,0.225
			c14.213,0.026,28.426,0.053,42.639,0.08l-0.006,3.382c-0.005,2.818,1.917,5.205,4.514,5.924
			c-0.031,16.368-0.062,32.735-0.092,49.103c-2.322,0.874-3.989,3.114-3.994,5.732l-0.04,21.212
			c-0.005,2.618,1.655,4.864,3.973,5.747c-0.034,18.054-0.068,36.107-0.102,54.16c-0.007,3.933-0.177,7.905-0.022,11.835
			c0.053,1.342,0.227,2.616,0.503,3.827C462,669.401,455.662,669.389,449.325,669.377z M719.672,514.253
			c-0.041,21.919-0.083,43.838-0.124,65.756c-12.941,5.883-25.068,13.535-35.858,22.999c-19.806,17.372-34.095,40.701-38.712,66.736
			c-24.664-0.046-49.328-0.093-73.991-0.139c-32.274-0.061-64.548-0.122-96.822-0.182c-0.933-3.182-0.908-6.709-0.901-10.455
			c0.037-19.807,0.074-39.614,0.112-59.422c2.247-0.911,3.846-3.115,3.85-5.679l0.04-21.212c0.005-2.564-1.586-4.774-3.829-5.694
			c0.031-16.546,0.062-33.091,0.093-49.637c1.957-1.026,3.304-3.075,3.308-5.428l0.006-3.382c26.533,0.05,53.066,0.1,79.599,0.15
			c45.22,0.085,90.44,0.17,135.661,0.255c9.192,0.017,18.385,0.034,27.577,0.052C719.679,510.732,719.675,512.493,719.672,514.253z
			 M719.712,492.719c-1.093-0.002-2.185-0.004-3.277-0.006c-45.559-0.086-91.118-0.171-136.677-0.257
			c-34.294-0.064-68.588-0.129-102.883-0.193l0.003-1.578c0.004-2.352-1.335-4.406-3.288-5.44
			c0.018-9.243,0.035-18.486,0.052-27.729c0.002-0.928,0.004-1.857,0.005-2.785c0-0.016,0.005-0.031,0.005-0.047
			c0.039-20.808,0.078-41.617,0.117-62.425c0.006-3.065-0.279-6.416,0.366-9.433c2.076-9.709,11.869-14.504,21.002-14.741
			c8.622-0.224,17.376-0.384,25.974-0.367c21.117,0.04,42.235,0.033,63.353,0.119c15.65,0.064,30.903,2.541,44.329,10.993
			c15.474,9.741,27.67,24.395,40.409,37.283c15.361,15.54,30.918,30.889,46.382,46.326c3.782,4.048,3.969,8.662,3.984,13.945
			c0.002,0.627-0.291,2.838,0.02,4.255c-0.174,1.224,0.135,4.706,0.134,5.146C719.721,488.095,719.716,490.407,719.712,492.719z
			 M724.337,478.194c0.175-0.12,0.653-1.994,0.649-2.602c-0.014-2.24-0.052-4.484-0.397-6.703
			c-0.635-4.082-2.356-7.268-5.165-10.275c-14.121-14.095-28.255-28.177-42.363-42.285c-12.756-12.757-24.745-26.765-39.154-37.728
			c-14.081-10.714-30.372-15.446-47.938-16.089c-22.157-0.812-44.438-0.166-66.608-0.208c-8.942-0.017-17.878,0.345-26.855,0.366
			c-14.199,0.033-27.732,8.469-28.144,23.809c-0.609,22.686-0.086,45.453-0.128,68.149c0,0.015-0.005,0.031-0.005,0.046
			c-0.019,10.026-0.038,20.053-0.056,30.08c-2.6,0.71-4.531,3.09-4.536,5.908l-0.003,1.578c-7.688-0.014-15.376-0.029-23.064-0.043
			c-41.646-0.078-83.293-0.157-124.939-0.235c-31.118-0.058-62.236-0.117-93.354-0.175c1.996-1.707,3.913-3.539,5.721-5.524
			c9.519-10.454,16.049-23.41,19.997-36.926c2.442-8.362,3.38-16.833,7.188-24.82c6.697-14.047,17.991-25.126,30.965-33.479
			c25.001-16.096,54.926-23.855,84.073-28.145c3.65-0.537,2.898-0.437,6.381-0.852c2.361-0.281,4.725-0.536,7.092-0.76
			c2.862-0.271,5.731-0.517,8.602-0.663c5.278-0.268,10.575-0.275,15.858-0.394c48.952-1.102,97.769-1.845,146.73-1.753
			c12.21,0.023,24.494-0.507,36.678,0.414c12.407,0.937,22.671,2.59,35.517,5.72c12.59,3.067,24.927,7.158,36.798,12.338
			c9.245,28.26,31.552,53.613,55.816,69.398c13.194,8.584,27.836,14.772,43.003,18.894c1.182,1.669,2.387,3.321,3.663,4.92
			c8.204,10.285,19.676,17.45,31.821,22.714c-24.246-0.045-48.492-0.091-72.738-0.136c-0.064-4.593-0.215-9.168-0.521-13.711
			C724.901,478.705,724.477,478.425,724.337,478.194z M999.324,617.387c-2.631,2.557-4.278,6.122-4.286,10.057
			c-0.005,2.965,0.923,5.721,2.5,8c-1.684,6.462-4.572,12.576-8.708,18.011c-5.855,7.693-13.79,13.491-22.716,16.928
			c-0.926-0.02-1.848-0.039-2.756-0.04c-10.636-0.02-21.272-0.04-31.908-0.06c-8.521-49.227-50.356-85.111-96.919-98.412
			c-35.655-10.185-75.175-8.284-109.559,5.794c0.029-15.404,0.058-30.808,0.087-46.211c0.014-7.439,0.2-14.952,0.322-22.47
			c29.195,0.055,58.391,0.11,87.587,0.165c29.798,0.056,59.597,0.112,89.395,0.168c14.61,0.027,29.245,0.308,43.853,0.082
			c0.63-0.01,1.261,0.002,1.891,0.004c26.315,0.38,49.567,21.039,51.199,47.757c0.932,15.266,0.064,30.801,0.035,46.086
			C999.331,607.958,999.34,612.673,999.324,617.387z M1028.354,613.443c-0.141-0.005-0.28-0.022-0.422-0.022l-12.308-0.023
			c-0.021-1.769-0.042-3.534-0.039-5.288c0.018-9.407,0.272-18.874,0.351-28.331c0.661-0.095,1.369-0.145,2.128-0.147
			c11.827-0.023,11.355,11.955,11.339,20.268C1029.393,604.271,1029.602,609.344,1028.354,613.443z"/>
	</g>
</g>
</svg>
