<?xml version="1.0" encoding="utf-8"?>
<!-- Generator: Adobe Illustrator 27.5.0, SVG Export Plug-In . SVG Version: 6.00 Build 0)  -->
<svg version="1.1" xmlns="http://www.w3.org/2000/svg" xmlns:xlink="http://www.w3.org/1999/xlink" x="0px" y="0px"
	 viewBox="0 0 1122 800" style="enable-background:new 0 0 1122 1122;" xml:space="preserve">
<g id="BG">
	<rect y="0" style="fill:#FFFFFF;" width="1122" height="1122"/>
</g>
<g id="Color">
	<g>
		<polygon style="fill:#435E7D;" points="229.346,507.356 232.923,507.356 441.58,295.92 229.346,295.92 		"/>
		<path style="fill:#435E7D;" d="M765.55,296.92c-1.226,0-2.364-0.369-3.314-1h-53.657l208.657,211.437h1.263V295.92H805.788
			c-0.95,0.631-2.088,1-3.314,1H765.55z"/>
		<rect x="416.677" y="521.655" style="fill:#F1F1F2;" width="40.944" height="61.557"/>
		<rect x="438.113" y="743.054" style="fill:#F1F1F2;" width="284.749" height="3.359"/>
		<path style="fill:#F1F1F2;" d="M239.395,518.549v330.413h0.954V746.413h32.263v-44.905v-51.117c0-2.485,2.015-4.5,4.5-4.5h85.745
			c2.485,0,4.5,2.015,4.5,4.5v51.117v44.905h37.32v-66.288h-3.894c-2.044,0-3.883-1.245-4.643-3.143l-18.53-46.326h-14.753
			c-2.761,0-5-2.238-5-5v-37.444c0-2.762,2.239-5,5-5h23.681v-96.067c0-3.313,2.687-6,6-6h18.139c3.314,0,6,2.687,6,6v7.192h42.444
			V384.91c0-2.485,2.015-4.5,4.5-4.5h74.502h73.726h74.575c2.485,0,4.5,2.015,4.5,4.5v109.427h44.305v-7.192c0-3.313,2.686-6,6-6
			h18.139c3.314,0,6,2.687,6,6v96.067h31.104c2.761,0,5,2.238,5,5v37.444c0,2.762-2.239,5-5,5h-9.802l-18.472,46.321
			c-0.758,1.9-2.598,3.148-4.644,3.148h-7.254v66.288h35.673v-44.905v-51.117c0-2.485,2.015-4.5,4.5-4.5h85.746
			c2.485,0,4.5,2.015,4.5,4.5v51.117v44.905h23.633v102.549h0.413V518.549L575.079,178.393L239.395,518.549z M612.501,279.624
			v32.979v32.979c0,2.485-2.015,4.5-4.5,4.5h-32.979h-32.979c-2.485,0-4.5-2.015-4.5-4.5v-32.979v-32.979c0-2.485,2.015-4.5,4.5-4.5
			h32.979h32.979C610.487,275.124,612.501,277.139,612.501,279.624z"/>
		<rect x="692.424" y="521.655" style="fill:#F1F1F2;" width="42.805" height="61.557"/>
		<rect x="438.113" y="680.125" style="fill:#F1F1F2;" width="284.749" height="27.739"/>
		<rect x="438.113" y="714.864" style="fill:#F1F1F2;" width="284.749" height="21.189"/>
		<rect x="771.55" y="223.071" style="fill:#B8996E;" width="24.924" height="61.849"/>
		<rect x="755.298" y="194.779" style="fill:#435E7D;" width="57.427" height="17.292"/>
		<rect x="542.623" y="521.655" style="fill:#A0C2F2;" width="26.399" height="59.492"/>
		<rect x="469.621" y="521.655" style="fill:#A0C2F2;" width="43.701" height="59.492"/>
		<rect x="525.321" y="521.655" style="fill:#A0C2F2;" width="8.301" height="59.492"/>
		<rect x="616.348" y="521.655" style="fill:#A0C2F2;" width="8.375" height="59.492"/>
		<rect x="581.022" y="521.655" style="fill:#A0C2F2;" width="26.326" height="59.492"/>
		<rect x="636.723" y="521.655" style="fill:#A0C2F2;" width="43.701" height="59.492"/>
		<rect x="616.348" y="389.41" style="fill:#A0C2F2;" width="65.575" height="104.927"/>
		<rect x="542.623" y="389.41" style="fill:#A0C2F2;" width="64.726" height="104.927"/>
		<rect x="468.121" y="389.41" style="fill:#A0C2F2;" width="65.502" height="104.927"/>
		<rect x="546.543" y="317.103" style="fill:#9ED1E3;" width="23.979" height="23.979"/>
		<rect x="579.522" y="284.124" style="fill:#9ED1E3;" width="23.979" height="23.979"/>
		<rect x="546.543" y="284.124" style="fill:#9ED1E3;" width="23.979" height="23.979"/>
		<rect x="579.522" y="317.103" style="fill:#9ED1E3;" width="23.979" height="23.979"/>
		<rect x="438.113" y="799.432" style="fill:#D0D1D3;" width="284.749" height="21.19"/>
		<rect x="438.113" y="771.242" style="fill:#D0D1D3;" width="284.749" height="21.189"/>
		<path style="fill:#D0D1D3;" d="M886.717,746.413V792.2c0,2.485-2.015,4.5-4.5,4.5h-42.873h-42.873c-2.485,0-4.5-2.015-4.5-4.5
			v-45.787h-35.673v103.284h154.051v-0.735V746.413H886.717z"/>
		<rect x="438.113" y="746.413" style="fill:#D0D1D3;" width="284.749" height="17.829"/>
		<rect x="438.113" y="827.621" style="fill:#D0D1D3;" width="284.749" height="22.076"/>
		<path style="fill:#D0D1D3;" d="M367.357,746.413V792.2c0,2.485-2.015,4.5-4.5,4.5h-42.873h-42.872c-2.485,0-4.5-2.015-4.5-4.5
			v-45.787h-32.263v102.549v0.735h164.328V746.413H367.357z"/>
		<polygon style="fill:#9ED1E3;" points="358.357,654.891 281.612,654.891 281.612,697.008 319.985,697.008 358.357,697.008 		"/>
		<rect x="324.485" y="706.008" style="fill:#9ED1E3;" width="33.873" height="81.692"/>
		<rect x="281.612" y="706.008" style="fill:#9ED1E3;" width="33.873" height="81.692"/>
		<rect x="800.971" y="706.008" style="fill:#9ED1E3;" width="33.873" height="81.692"/>
		<polygon style="fill:#9ED1E3;" points="877.717,654.891 800.971,654.891 800.971,697.008 839.344,697.008 877.717,697.008 		"/>
		<rect x="843.844" y="706.008" style="fill:#9ED1E3;" width="33.873" height="81.692"/>
		<rect x="416.677" y="681.125" style="fill:#6B4E2F;" width="9.436" height="168.071"/>
		<rect x="734.862" y="681.125" style="fill:#6B4E2F;" width="9.436" height="168.071"/>
		<polygon style="fill:#DC8788;" points="404.168,670.125 760.163,670.125 775.903,630.656 388.381,630.656 		"/>
		<path style="fill:#D0534F;" d="M741.229,594.212c-1.226,0-2.364-0.369-3.314-1H413.991c-0.95,0.631-2.088,1-3.314,1h-18.139
			c-1.226,0-2.364-0.369-3.314-1h-21.367v27.444h13.139h402.284h8.191v-27.444h-28.79c-0.95,0.631-2.088,1-3.314,1H741.229z"/>
		<polygon style="fill:#7F5E40;" points="404.677,493.145 398.538,493.145 398.538,582.212 404.677,582.212 404.677,515.655 
			404.677,500.337 		"/>
		<polygon style="fill:#7F5E40;" points="753.367,582.212 753.367,493.145 747.229,493.145 747.229,500.337 747.229,515.655 
			747.229,582.212 		"/>
		<rect x="416.677" y="506.337" style="fill:#7F5E40;" width="318.552" height="3.318"/>
	</g>
</g>
<g id="Stroke">
	<g>
		<path style="fill:#424243;" d="M573.806,902.721c0-4.097-2.519-7.45-5.596-7.45H236.169c-3.078,0-5.596,3.353-5.596,7.45
			c0,4.097,2.519,7.45,5.596,7.45H568.21C571.288,910.171,573.806,906.818,573.806,902.721z"/>
		<path style="fill:#424243;" d="M599.549,910.171c3.078,0,5.596-3.352,5.596-7.45c0-4.097-2.518-7.45-5.596-7.45h-8.208
			c-3.078,0-5.596,3.353-5.596,7.45c0,4.097,2.519,7.45,5.596,7.45H599.549z"/>
		<path style="fill:#424243;" d="M878.24,934.01H555.152c-3.283,0-5.969,3.576-5.969,7.946s2.686,7.946,5.969,7.946H878.24
			c3.283,0,5.969-3.576,5.969-7.946S881.523,934.01,878.24,934.01z"/>
		<path style="fill:#424243;" d="M914.801,934.01h-14.923c-3.283,0-5.969,3.576-5.969,7.946s2.686,7.946,5.969,7.946h14.923
			c3.283,0,5.969-3.576,5.969-7.946S918.084,934.01,914.801,934.01z"/>
		<path style="fill:#424243;" d="M499.763,975.729H484.84c-3.283,0-5.969,3.576-5.969,7.946s2.686,7.946,5.969,7.946h14.923
			c3.283,0,5.969-3.576,5.969-7.946S503.046,975.729,499.763,975.729z"/>
	</g>
	<g>
		<path style="fill:#434244;" d="M228.724,511.611l4.199-4.255h-3.577V295.92H441.58l9.869-10H224.346c-2.761,0-5,2.238-5,5v221.436
			c0,2.762,2.239,5,5,5h2.581v-1.366C226.927,514.352,227.572,512.778,228.724,511.611z"/>
		<path style="fill:#434244;" d="M923.5,285.92H808.474v5c0,2.088-1.068,3.925-2.686,5H918.5v211.437h-1.263l4.199,4.255
			c1.151,1.167,1.797,2.74,1.797,4.379v1.366h0.268c2.761,0,5-2.238,5-5V290.92C928.5,288.158,926.261,285.92,923.5,285.92z"/>
		<path style="fill:#434244;" d="M762.236,295.92c-1.618-1.075-2.686-2.912-2.686-5v-5H698.71l9.869,10H762.236z"/>
		<path style="fill:#434244;" d="M921.435,511.611l-4.199-4.255L708.579,295.92l-9.869-10L579.517,165.139
			c-1.171-1.188-2.77-1.855-4.438-1.855c-1.667,0-3.266,0.668-4.438,1.855L451.448,285.92l-9.869,10L232.923,507.356l-4.199,4.255
			c-1.151,1.167-1.797,2.74-1.797,4.379v1.366v337.84c0,3.443,2.792,6.234,6.234,6.234h683.835c3.443,0,6.234-2.791,6.234-6.234
			l0.001-337.84v-1.366C923.232,514.352,922.587,512.778,921.435,511.611z M910.763,848.962h-0.413v0.735H756.298v5.499
			c0,3.314-2.687,6-6,6h-21.436c-3.314,0-6-2.686-6-6v-5.499H438.113v5.499c0,3.314-2.686,6-6,6h-21.436c-3.314,0-6-2.686-6-6
			v-5.499H240.349v-0.735h-0.954V518.549l335.684-340.156l335.684,340.156V848.962z"/>
		<path style="fill:#434244;" d="M762.236,295.92c0.95,0.631,2.088,1,3.314,1h36.924c1.226,0,2.364-0.369,3.314-1
			c1.618-1.075,2.686-2.912,2.686-5v-5v-63.849H759.55v63.849v5C759.55,293.008,760.617,294.845,762.236,295.92z M771.55,223.071
			h24.924v61.849H771.55V223.071z"/>
		<path style="fill:#434244;" d="M817.725,222.071c2.761,0,5-2.238,5-5v-27.292c0-2.762-2.239-5-5-5h-67.427c-2.761,0-5,2.238-5,5
			v27.292c0,2.762,2.239,5,5,5h9.252h48.924H817.725z M755.298,212.071v-17.292h57.427v17.292H755.298z"/>
		<path style="fill:#434244;" d="M616.348,384.91v4.5h65.575v104.927h9V384.91c0-2.485-2.015-4.5-4.5-4.5h-74.575
			C614.334,380.41,616.348,382.425,616.348,384.91z"/>
		<path style="fill:#434244;" d="M542.623,384.91v4.5h64.726v-4.5c0-2.485,2.015-4.5,4.5-4.5h-73.726
			C540.608,380.41,542.623,382.425,542.623,384.91z"/>
		<rect x="469.621" y="581.148" style="fill:#434244;" width="43.701" height="2.064"/>
		<rect x="581.022" y="581.148" style="fill:#434244;" width="26.326" height="2.064"/>
		<rect x="636.723" y="581.148" style="fill:#434244;" width="43.701" height="2.064"/>
		<rect x="542.623" y="581.148" style="fill:#434244;" width="26.399" height="2.064"/>
		<rect x="616.348" y="581.148" style="fill:#434244;" width="8.375" height="2.064"/>
		<rect x="525.321" y="581.148" style="fill:#434244;" width="8.301" height="2.064"/>
		<path style="fill:#434244;" d="M468.121,389.41h65.502v-4.5c0-2.485,2.015-4.5,4.5-4.5h-74.502c-2.485,0-4.5,2.015-4.5,4.5
			v109.427h9V389.41z"/>
		<path style="fill:#434244;" d="M533.623,384.91v4.5v104.927h9V389.41v-4.5c0-2.485-2.015-4.5-4.5-4.5
			C535.638,380.41,533.623,382.425,533.623,384.91z"/>
		<polygon style="fill:#434244;" points="533.623,583.212 542.623,583.212 542.623,581.148 542.623,521.655 533.623,521.655 
			533.623,581.148 		"/>
		<path style="fill:#434244;" d="M607.348,384.91v4.5v104.927h9V389.41v-4.5c0-2.485-2.015-4.5-4.5-4.5
			C609.363,380.41,607.348,382.425,607.348,384.91z"/>
		<polygon style="fill:#434244;" points="607.348,583.212 616.348,583.212 616.348,581.148 616.348,521.655 607.348,521.655 
			607.348,581.148 		"/>
		<path style="fill:#434244;" d="M542.043,308.103h4.5v-23.979h23.979v-4.5c0-2.485,2.015-4.5,4.5-4.5h-32.979
			c-2.485,0-4.5,2.015-4.5,4.5v32.979C537.543,310.117,539.558,308.103,542.043,308.103z"/>
		<path style="fill:#434244;" d="M579.522,279.624v4.5h23.979v23.979h4.5c2.485,0,4.5,2.015,4.5,4.5v-32.979
			c0-2.485-2.015-4.5-4.5-4.5h-32.979C577.508,275.124,579.522,277.139,579.522,279.624z"/>
		<path style="fill:#434244;" d="M570.522,345.581v-4.5h-23.979v-23.979h-4.5c-2.485,0-4.5-2.015-4.5-4.5v32.979
			c0,2.485,2.015,4.5,4.5,4.5h32.979C572.537,350.081,570.522,348.066,570.522,345.581z"/>
		<path style="fill:#434244;" d="M608.001,317.103h-4.5v23.979h-23.979v4.5c0,2.485-2.015,4.5-4.5,4.5h32.979
			c2.485,0,4.5-2.015,4.5-4.5v-32.979C612.501,315.088,610.487,317.103,608.001,317.103z"/>
		<path style="fill:#434244;" d="M608.001,308.103h-4.5h-23.979v9h23.979h4.5c2.485,0,4.5-2.015,4.5-4.5
			C612.501,310.117,610.487,308.103,608.001,308.103z"/>
		<path style="fill:#434244;" d="M542.043,317.103h4.5h23.979v-9h-23.979h-4.5c-2.485,0-4.5,2.015-4.5,4.5
			C537.543,315.088,539.558,317.103,542.043,317.103z"/>
		<path style="fill:#434244;" d="M579.522,345.581v-4.5v-23.979v-9v-23.979v-4.5c0-2.485-2.015-4.5-4.5-4.5
			c-2.485,0-4.5,2.015-4.5,4.5v4.5v23.979v9v23.979v4.5c0,2.485,2.015,4.5,4.5,4.5C577.508,350.081,579.522,348.066,579.522,345.581
			z"/>
		<path style="fill:#434244;" d="M277.112,796.7h42.872c-2.485,0-4.5-2.015-4.5-4.5v-4.5h-33.872v-81.692h-4.5
			c-2.485,0-4.5-2.015-4.5-4.5v44.905V792.2C272.612,794.685,274.627,796.7,277.112,796.7z"/>
		<path style="fill:#434244;" d="M277.112,697.008h4.5v-42.117h76.745v42.117h4.5c2.485,0,4.5,2.015,4.5,4.5v-51.117
			c0-2.485-2.015-4.5-4.5-4.5h-85.745c-2.485,0-4.5,2.015-4.5,4.5v51.117C272.612,699.023,274.627,697.008,277.112,697.008z"/>
		<path style="fill:#434244;" d="M362.857,706.008h-4.5V787.7h-33.873v4.5c0,2.485-2.015,4.5-4.5,4.5h42.873
			c2.485,0,4.5-2.015,4.5-4.5v-45.787v-44.905C367.357,703.993,365.342,706.008,362.857,706.008z"/>
		<path style="fill:#434244;" d="M362.857,697.008h-4.5h-38.373c2.485,0,4.5,2.015,4.5,4.5v4.5h33.873h4.5
			c2.485,0,4.5-2.015,4.5-4.5C367.357,699.023,365.342,697.008,362.857,697.008z"/>
		<path style="fill:#434244;" d="M277.112,706.008h4.5h33.872v-4.5c0-2.485,2.015-4.5,4.5-4.5h-38.372h-4.5
			c-2.485,0-4.5,2.015-4.5,4.5C272.612,703.993,274.627,706.008,277.112,706.008z"/>
		<path style="fill:#434244;" d="M324.485,792.2v-4.5v-81.692v-4.5c0-2.485-2.015-4.5-4.5-4.5c-2.485,0-4.5,2.015-4.5,4.5v4.5V787.7
			v4.5c0,2.485,2.015,4.5,4.5,4.5C322.47,796.7,324.485,794.685,324.485,792.2z"/>
		<path style="fill:#434244;" d="M796.471,697.008h4.5v-42.117h76.746v42.117h4.5c2.485,0,4.5,2.015,4.5,4.5v-51.117
			c0-2.485-2.015-4.5-4.5-4.5h-85.746c-2.485,0-4.5,2.015-4.5,4.5v51.117C791.971,699.023,793.986,697.008,796.471,697.008z"/>
		<path style="fill:#434244;" d="M796.471,796.7h42.873c-2.485,0-4.5-2.015-4.5-4.5v-4.5h-33.873v-81.692h-4.5
			c-2.485,0-4.5-2.015-4.5-4.5v44.905V792.2C791.971,794.685,793.986,796.7,796.471,796.7z"/>
		<path style="fill:#434244;" d="M882.217,706.008h-4.5V787.7h-33.873v4.5c0,2.485-2.015,4.5-4.5,4.5h42.873
			c2.485,0,4.5-2.015,4.5-4.5v-45.787v-44.905C886.717,703.993,884.702,706.008,882.217,706.008z"/>
		<path style="fill:#434244;" d="M796.471,706.008h4.5h33.873v-4.5c0-2.485,2.015-4.5,4.5-4.5h-38.373h-4.5
			c-2.485,0-4.5,2.015-4.5,4.5C791.971,703.993,793.986,706.008,796.471,706.008z"/>
		<path style="fill:#434244;" d="M882.217,697.008h-4.5h-38.373c2.485,0,4.5,2.015,4.5,4.5v4.5h33.873h4.5
			c2.485,0,4.5-2.015,4.5-4.5C886.717,699.023,884.702,697.008,882.217,697.008z"/>
		<path style="fill:#434244;" d="M843.844,792.2v-4.5v-81.692v-4.5c0-2.485-2.015-4.5-4.5-4.5c-2.485,0-4.5,2.015-4.5,4.5v4.5V787.7
			v4.5c0,2.485,2.015,4.5,4.5,4.5C841.829,796.7,843.844,794.685,843.844,792.2z"/>
		<path style="fill:#434244;" d="M432.113,827.621v-7h6v-21.19h-6v-7h6v-21.189h-6v-7h6v-17.829v-3.359h-6v-7h6v-21.189h-6v-7h6
			v-27.739h-33.436v66.288v103.284v5.499c0,3.314,2.686,6,6,6h21.436c3.314,0,6-2.686,6-6v-5.499v-22.076H432.113z M426.113,849.196
			h-9.436V681.125h9.436V849.196z"/>
		<path style="fill:#434244;" d="M756.298,680.125h-33.436v27.739h6v7h-6v21.189h6v7h-6v3.359v17.829h6v7h-6v21.189h6v7h-6v21.19h6
			v7h-6v22.076v5.499c0,3.314,2.686,6,6,6h21.436c3.313,0,6-2.686,6-6v-5.499V746.413V680.125z M744.298,849.196h-9.436V681.125
			h9.436V849.196z"/>
		<path style="fill:#434244;" d="M722.862,680.125h33.436h7.254c2.046,0,3.886-1.247,4.644-3.148l18.472-46.321h-10.766
			l-15.74,39.469H404.168l-15.787-39.469H377.61l18.53,46.326c0.759,1.897,2.598,3.143,4.643,3.143h3.894h33.436H722.862z"/>
		<path style="fill:#434244;" d="M775.903,630.656h10.766h9.802c2.761,0,5-2.238,5-5v-37.444c0-2.762-2.239-5-5-5h-31.104v5
			c0,2.088-1.068,3.925-2.686,5h28.79v27.444h-8.191H380.996h-13.139v-27.444h21.367c-1.618-1.075-2.686-2.912-2.686-5v-5h-23.681
			c-2.761,0-5,2.238-5,5v37.444c0,2.762,2.239,5,5,5h14.753h10.771H775.903z"/>
		<path style="fill:#434244;" d="M735.229,588.212v-5h-42.805v2.436h-12v-2.436h-43.701v2.436h-12v-2.436h-8.375h-9h-26.326v2.436
			h-12v-2.436h-26.399h-9h-8.301v2.436h-12v-2.436h-43.701v2.436h-12v-2.436h-40.944v5c0,2.088-1.068,3.925-2.686,5h323.924
			C736.297,592.137,735.229,590.3,735.229,588.212z"/>
		<path style="fill:#434244;" d="M389.225,593.212c0.95,0.631,2.088,1,3.314,1h18.139c1.226,0,2.364-0.369,3.314-1
			c1.618-1.075,2.686-2.912,2.686-5v-5v-61.557h-6c-3.314,0-6-2.686-6-6v66.557h-6.139v-89.067h6.139v7.192c0-3.314,2.686-6,6-6h6
			v-7.192c0-3.313-2.686-6-6-6h-18.139c-3.313,0-6,2.687-6,6v96.067v5C386.538,590.3,387.606,592.137,389.225,593.212z"/>
		<path style="fill:#434244;" d="M747.229,500.337v-7.192h6.139v89.067h-6.139v-66.557c0,3.314-2.686,6-6,6h-6v61.557v5
			c0,2.088,1.068,3.925,2.686,5c0.95,0.631,2.088,1,3.314,1h18.139c1.226,0,2.364-0.369,3.314-1c1.618-1.075,2.686-2.912,2.686-5v-5
			v-96.067c0-3.313-2.686-6-6-6h-18.139c-3.314,0-6,2.687-6,6v7.192h6C744.543,494.337,747.229,497.023,747.229,500.337z"/>
		<path style="fill:#434244;" d="M404.677,500.337v15.318c0,3.314,2.686,6,6,6h6h40.944v-6h6h6v6h43.701v-6h6h6v6h8.301h9h26.399v-6
			h6h6v6h26.326h9h8.375v-6h6h6v6h43.701v-6h6h6v6h42.805h6c3.314,0,6-2.686,6-6v-15.318c0-3.314-2.686-6-6-6h-6h-44.305h-9h-65.575
			h-9h-64.726h-9h-65.502h-9h-42.444h-6C407.363,494.337,404.677,497.023,404.677,500.337z M416.677,506.337h318.552v3.318H416.677
			V506.337z"/>
		<polygon style="fill:#434244;" points="457.621,585.648 469.621,585.648 469.621,583.212 469.621,581.148 469.621,521.655 
			469.621,515.655 463.621,515.655 457.621,515.655 457.621,521.655 457.621,583.212 		"/>
		<polygon style="fill:#434244;" points="513.321,583.212 513.321,585.648 525.321,585.648 525.321,583.212 525.321,581.148 
			525.321,521.655 525.321,515.655 519.321,515.655 513.321,515.655 513.321,521.655 513.321,581.148 		"/>
		<polygon style="fill:#434244;" points="569.022,583.212 569.022,585.648 581.022,585.648 581.022,583.212 581.022,581.148 
			581.022,521.655 581.022,515.655 575.022,515.655 569.022,515.655 569.022,521.655 569.022,581.148 		"/>
		<polygon style="fill:#434244;" points="624.723,583.212 624.723,585.648 636.723,585.648 636.723,583.212 636.723,581.148 
			636.723,521.655 636.723,515.655 630.723,515.655 624.723,515.655 624.723,521.655 624.723,581.148 		"/>
		<polygon style="fill:#434244;" points="680.424,583.212 680.424,585.648 692.424,585.648 692.424,583.212 692.424,521.655 
			692.424,515.655 686.424,515.655 680.424,515.655 680.424,521.655 680.424,581.148 		"/>
		<polygon style="fill:#434244;" points="432.113,707.864 432.113,714.864 438.113,714.864 722.862,714.864 728.862,714.864 
			728.862,707.864 722.862,707.864 438.113,707.864 		"/>
		<polygon style="fill:#434244;" points="432.113,736.054 432.113,743.054 438.113,743.054 722.862,743.054 728.862,743.054 
			728.862,736.054 722.862,736.054 438.113,736.054 		"/>
		<polygon style="fill:#434244;" points="432.113,764.242 432.113,771.242 438.113,771.242 722.862,771.242 728.862,771.242 
			728.862,764.242 722.862,764.242 438.113,764.242 		"/>
		<polygon style="fill:#434244;" points="432.113,792.432 432.113,799.432 438.113,799.432 722.862,799.432 728.862,799.432 
			728.862,792.432 722.862,792.432 438.113,792.432 		"/>
		<polygon style="fill:#434244;" points="432.113,820.621 432.113,827.621 438.113,827.621 722.862,827.621 728.862,827.621 
			728.862,820.621 722.862,820.621 438.113,820.621 		"/>
	</g>
</g>
</svg>
