<?xml version="1.0" encoding="utf-8"?>
<!-- Generator: Adobe Illustrator 27.5.0, SVG Export Plug-In . SVG Version: 6.00 Build 0)  -->
<svg version="1.1" xmlns="http://www.w3.org/2000/svg" xmlns:xlink="http://www.w3.org/1999/xlink" x="0px" y="0px"
	 viewBox="0 0 1200 900" style="enable-background:new 0 0 1200 1200;" xml:space="preserve">
<g id="background">
	<rect style="fill:#FFFFFF;" width="1200" height="1200"/>
</g>
<g id="graphic_elements">
	<path style="fill:#FFFFFF;" d="M825.013,453.121c-8.876-43.563-22.59-86.693-46.321-124.287
		c-23.731-37.595-58.205-69.468-100.076-84.413c-41.871-14.945-91.313-11.246-127.37,14.76
		c-34.293,24.734-53.062,66.013-62.23,107.29s-10.199,83.92-17.146,125.628c-7.772,46.658-22.988,92.671-21.344,139.943
		c1.271,36.52,12.584,71.911,17.271,108.152c9.174,70.939-7.079,144.51,10.865,213.752c4.39,16.94,11.464,34.274,25.522,44.695
		c24.219,17.953,58.206,8.94,86.739-0.793l-17.471,16.063c43.566,4.066,87.663,2.405,130.8-4.927
		c7.005-1.191,14.164-2.597,20.211-6.328c8.795-5.425,14.024-14.936,19.876-23.452c16.727-24.339,40.918-42.868,57.272-67.46
		c11.857-17.83,19.211-38.311,24.344-59.099c10.386-42.06,12.043-85.721,13.318-129.026
		C841.938,633.157,843.08,541.8,825.013,453.121z"/>
	<path style="fill:#D3EFF0;" d="M1018.689,377.414c33.419,93.684,49.822,196.557,21.004,293.589
		c-6.321,21.282-14.492,42.49-16.969,64.69c-2.402,21.535,10.665,44.302-7.468,62.128c-14.24,13.999-35.872,11.047-52.483,3.274
		c-26.742-12.514-52.486-27.532-79.166-40.322c-46.963-22.514-95.366-57.727-108.646-110.941
		c-5.828-23.351-6.709-47.599-8.866-71.57c-1.347-14.968-3.911-29.752-4.561-44.674c-0.46-10.543-4.45-21.024-10.437-29.652
		c-5.649-8.14-15.604-8.926-21.978-16.646c-3.065-3.712-4.855-8.281-6.776-12.696c-5.455-12.538-13.491-25.44-26.506-29.633
		c-7.565-2.437-16.153-1.651-23.06-5.582c-8.352-4.754-11.884-15.512-10.472-25.018c1.418-9.545,7.78-15.216,11.951-23.357
		c3.505-6.841,5.174-14.923,6.081-22.473c1.152-9.591,1.6-21.161-0.821-30.594c-2.258-8.795-7.948-16.213-16.689-19.137
		c-8.439-2.823-17.606,1.695-25.786-1.729c-2.781-1.164-4.91-3.438-7.154-5.451c-8.686-7.79-20.347-11.955-31.964-12.059
		c-11.651-0.104-20.126,6.065-31.442,5.008c-12.684-1.185-14.087,13.19-15.664,23.041c-2.397,14.972,3.258,29.7,5.476,44.328
		c0.295,1.943,0.482,4.063-0.528,5.748c-1.497,2.499-4.901,2.96-7.811,2.83c-6.771-0.303-14.075-2.227-19.976,1.107
		c-10.36,5.853-13.235,28.711-12.7,39.246c0.675,13.292,4.293,24.565,2.778,38.435c-2.324,21.266-10.122,41.496-17.85,61.445
		c-4.805,12.403-9.61,24.807-14.415,37.21c-10.928,28.208-25.301,67.518-56.422,33.519c-19.621-21.436-26.808-49.482-34.447-76.722
		c-3.456-12.324-4.944-26.117-9.328-37.817c-4.688-12.512-14.835-22.713-23.676-32.381c-24.299-26.572-46.482-55.079-66.269-85.162
		c-3.094-4.704-6.254-9.921-5.74-15.528c0.639-6.965,6.641-12.055,12.248-16.236c28.224-21.045,60-36.285,88.972-56.133
		c29.613-20.286,57.061-44.059,89.318-60.238c55.497-27.835,110.969-17.243,168.304-4.251c60.109,13.62,122.159,0.754,182.849,0.025
		c21.006-0.253,42.365,0.98,62.203,7.914c34.321,11.996,63.495,50.309,83.345,79.199
		C994.789,319.822,1008.212,348.044,1018.689,377.414z"/>
	<path style="fill:#EDFEFF;" d="M494.53,993.896c9.724-3.728,18.729-9.68,24.173-18.037c10.839-16.637,12.75-20.15,34.281-23.175
		c1.251-0.176,2.641-0.492,3.318-1.558c0.449-0.708,0.476-1.596,0.488-2.434c0.189-13.885-1.213-27.623-1.124-41.516
		c0.187-29.347,0.373-58.694,0.56-88.041c0.021-3.313-0.032-6.873-1.958-9.569c-2.829-3.96-8.927-4.925-10.98-9.337
		c-0.934-2.007-0.804-4.325-0.655-6.534c1.653-24.529,3.547-45.904-3.977-69.962c-6.155-19.669-35.304,2.082-41.783-12.664
		c-2.285-5.2-1.28-13.857-1.64-19.488c-0.44-6.892-0.803-13.788-1.09-20.688c-0.573-13.8-0.838-27.613-0.796-41.425
		c0.011-3.737,0.078-7.62,1.725-10.975c3.735-7.61,15.065-7.166,21.689-10.91c6.654-3.761,7.666-10.928,8.179-18.031
		c1.518-21.018,1.586-42.249,2.377-63.309c0.829-22.075,1.769-47.875,20.232-63.12c8.394-6.931,18.895-10.997,29.62-12.86
		c3.308-0.575,7.4-1.612,8.06-4.905c0.36-1.798-0.548-3.615-1.684-5.053c-4.409-5.583-11.609-7.518-17.05-11.784
		c-5.24-4.109-5.368-8.366-6.67-14.448c-3.863-18.045-2.678-38.002-3.495-56.447c-0.162-3.661-0.329-7.355-1.261-10.899
		c-5.544-21.072-28.83-28.917-46.682-36.574c-76.158-32.665-166.417-10.712-236.677,33.226
		c-29.375,18.37-56.691,40.651-77.613,68.267c-46.259,61.063-57.056,143.249-45.792,219.023
		c8.593,57.804,29.277,113.719,59.953,163.435c31.175,50.524,78.209,97.737,119.568,140.551
		c14.869,15.392,30.538,30.497,49.459,40.496c12.855,6.794,26.877,11.047,40.868,15.003c18.89,5.341,38.423,10.257,57.943,8.177
		C482.057,997.697,488.435,996.233,494.53,993.896z"/>
	<path style="fill:#DDF3F5;" d="M1027.267,807.314c-3.05-16.588-8.272-32.852-14.821-48.411
		c-7.863-18.681-18.39-36.45-21.448-56.708c-2.939-19.473,0.332-38.674,1.746-58.123c4.304-59.205-13.487-117.538-31.075-174.234
		c-4.892-15.769-9.916-31.815-19.318-45.387c-18.605-26.857-52.709-40.295-85.37-39.445c-31.28,0.813-60.718,12.943-91.548,16.829
		c-23.516,2.964-45.782,13.788-67.088-2.031c-3.349-2.487-5.742-5.975-8.513-9.037c-1.999-2.21-5.719-7.675-8.819-8.238
		c-6.758-1.228-8.643,11.834-11.024,15.872c-1.576,2.671-3.32,5.244-5.235,7.683c-4.995,6.362-6.433,7.619-6.571,16.491
		c-0.127,8.168,0.901,16.684,5.795,23.494c5.153,7.171,13.611,11.126,21.895,14.185c8.385,3.096,17.96,5.458,24.055,12.16
		c6.277,6.902,10.85,16.46,11.844,25.754c1.292,12.084,2.621,24.022,4.157,36.226c3.921,12.648,7.789,25.325,9.056,38.574
		c1.54,16.103-2.556,30.827-8.189,45.729c-5.086,13.453-7.562,23.821-7.157,38.628l1.865,68.26
		c0.311,11.377,0.621,22.754,0.933,34.13c0.203,7.379,3.829,18.074-0.996,24.543c-0.962,1.29-2.218,2.324-3.453,3.356
		c-2.685,2.244-5.371,4.591-7.188,7.581c-3.117,5.128-2.018,15.331-2.456,21.343c-1.433,19.665,0.212,39.986,0.418,59.707
		c0.227,21.623,0.454,43.247,0.68,64.871c0.167,15.968-17.856,32.243-7.795,47.147c3.594,5.324,9.177,8.974,14.912,11.867
		c29.162,14.706,63.67,12.716,96.124,9.049c37.04-4.185,75.137-8.896,111.53-17.043c60.492-13.543,103.104-87.815,105.849-146.142
		C1030.672,833.022,1029.612,820.072,1027.267,807.314z"/>
	<path style="fill:#BAE0E3;" d="M792.487,957.902c-13.682-3.224-28.021-8.05-42.155-8.577c-11.823-0.441-25.002-2.043-36.232,2.571
		c-1.342,0.551-2.677,1.185-3.755,2.156c-4.73,4.261-7.079,13.589-10.895,19.11c-4.636,6.708-9.57,12.638-16.081,17.636
		c-12.554,9.638-29.275,16.656-45.353,15.28c-6.788-0.581-16.636-4.346-20.24-10.646c-1.417-2.477-1.914-5.495-3.826-7.613
		c-3.545-3.93-9.858-2.898-14.959-1.49c-23.581,6.51-48.608,14.268-71.967,6.998c-2.404-0.748-4.869-1.725-6.495-3.648
		c-6.189-7.321,9.354-17.672,14.584-20.413c4.281-2.243,20.529-11.057,16.493-15.96c-3.083-3.746-17.636-0.966-21.957-0.772
		c-16.425,0.738-32.862,1.785-49.19,3.77c-16.47,2.002-49.661,6.803-53.945,26.908c-5.043,23.703,75.902,30.641,88.493,32.309
		c71.318,9.449,143.645,12.933,214.952,2.023c26.242-4.015,50.263-9.222,72.568-24.249
		C823.96,978.859,817.645,963.83,792.487,957.902z"/>
	<g>
		<path style="fill:#7D7D7D;" d="M666.799,529.031c2.57-5.116,4.451-10.554,5.515-16.183c0.942-4.983,1.95-10.659-1.872-14.704
			c-3.363-3.559-8.76-5.058-13.427-3.488c-4.413,1.484-7.297,5.301-9.152,9.404c-2.17,4.799-3.139,9.995-4.751,14.984
			c-0.374,1.158,1.447,1.654,1.82,0.502c1.243-3.848,2.087-7.815,3.421-11.635c1.316-3.766,3.243-7.939,6.69-10.213
			c3.991-2.633,9.186-2.218,12.903,0.716c1.924,1.519,3.138,3.556,3.344,6.024c0.206,2.464-0.274,5.046-0.712,7.461
			c-1.02,5.625-2.841,11.07-5.407,16.178C664.626,529.161,666.253,530.118,666.799,529.031L666.799,529.031z"/>
	</g>
	<g>
		<path style="fill:#7D7D7D;" d="M649.321,458.534c3.337-0.465,7.075,0.936,9.641,3.031c2.825,2.306,4.49,6.266,5.596,9.646
			c2.48,7.579,2.113,15.793-0.239,23.351c-0.362,1.162,1.459,1.659,1.82,0.502c2.03-6.522,2.615-13.498,1.309-20.224
			c-1.157-5.958-3.808-12.979-9.348-16.129c-2.797-1.59-6.072-2.444-9.281-1.997C647.622,456.882,648.132,458.7,649.321,458.534
			L649.321,458.534z"/>
	</g>
	<g>
		<path style="fill:#7D7D7D;" d="M594.583,525.388c-1.313,2.774-4.731,3.849-7.576,3.081c-1.35-0.364-2.544-1.168-3.204-2.424
			c-0.693-1.318-0.702-3.16-0.487-4.564c0.099-0.643,0.297-1.334,0.532-1.807c0.285-0.574,0.465-0.829,0.886-1.235
			c0.352-0.339,0.613-0.518,1.16-0.771c0.017-0.008,0.332-0.128,0.559-0.192c0.122-0.034,0.245-0.064,0.369-0.091
			c0.067-0.014,0.478-0.079,0.295-0.057c1.174-0.146,1.992-0.02,3.081,0.332c0.911,0.294,1.994,0.885,2.702,1.49
			c0.953,0.814,1.621,1.727,1.941,2.786C595.185,523.075,595.092,524.259,594.583,525.388c-0.211,0.468-0.131,1.01,0.338,1.291
			c0.402,0.241,1.082,0.125,1.291-0.339c1.24-2.75,0.74-5.693-1.322-7.897c-1.811-1.935-4.597-3.155-7.259-3.042
			c-2.916,0.123-5.227,1.968-5.973,4.8c-0.47,1.784-0.51,3.986,0.07,5.747c0.587,1.78,1.912,3.176,3.621,3.926
			c3.789,1.664,9.009,0.382,10.863-3.533C596.729,525.249,595.103,524.29,594.583,525.388z"/>
	</g>
	<g>
		<path style="fill:#7D7D7D;" d="M585.709,516.994c-1.115-9.5-1.736-19.054-1.836-28.62c-0.046-4.409-0.225-8.97,0.613-13.321
			c0.778-4.04,2.719-7.51,5.647-10.386c3.158-3.103,7.365-5.514,11.904-5.357c1.215,0.042,1.213-1.845,0-1.887
			c-7.935-0.274-15.566,6.311-18.329,13.434c-1.603,4.135-1.705,8.688-1.732,13.065c-0.032,5.194,0.087,10.389,0.357,15.577
			c0.305,5.847,0.806,11.681,1.489,17.495C583.962,518.186,585.851,518.2,585.709,516.994L585.709,516.994z"/>
	</g>
	<g>
		<path style="fill:#7D7D7D;" d="M560.23,642.305c-4.034,0.083-8.068-0.051-12.086-0.428c-1.957-0.184-3.936-0.375-5.871-0.728
			c-0.835-0.152-1.673-0.321-2.112-1.132c-0.456-0.843-0.285-2.121-0.293-3.04c-0.07-7.961-0.28-15.919-0.428-23.878
			c-0.149-7.989-0.237-15.982-0.062-23.971c0.176-7.986,0.722-15.941,1.425-23.896c1.442-16.317,3.368-32.592,4.443-48.941
			c0.891-13.542,3.209-28.948,13.991-38.411c5.689-4.993,12.839-7.648,19.999-9.746c3.702-1.085,7.394-2.189,11.17-2.986
			c3.056-0.645,6.393-1.229,9.024-3.019c0.998-0.679,0.055-2.315-0.953-1.629c-2.445,1.663-5.552,2.192-8.394,2.792
			c-3.37,0.711-6.653,1.672-9.962,2.622c-6.737,1.935-13.473,4.181-19.238,8.284c-11.775,8.379-15.815,22.977-17.122,36.706
			c-0.783,8.219-1.212,16.472-1.987,24.695c-0.8,8.484-1.688,16.96-2.477,25.445c-0.771,8.294-1.461,16.592-1.721,24.919
			c-0.262,8.39-0.202,16.787-0.057,25.179c0.143,8.29,0.37,16.578,0.454,24.869c0.016,1.583-0.217,3.507,0.56,4.961
			c0.699,1.307,2.032,1.798,3.418,2.028c3.956,0.654,7.984,0.997,11.989,1.149c2.096,0.08,4.194,0.09,6.291,0.047
			C561.443,644.167,561.447,642.28,560.23,642.305L560.23,642.305z"/>
	</g>
	<path style="fill:#7D7D7D;" d="M548.239,628.578c-5.845,0.182-11.69,0.365-17.535,0.547c-3.966,0.124-7.945-0.32-11.915-0.278
		c-3.128,0.034-9.369-0.749-11.845,1.335c-2.819,2.373-1.515,10.976-1.55,14.29c-0.065,6.219-0.02,12.438,0.074,18.657
		c0.187,12.439,0.584,24.874,0.744,37.314c0.014,1.078,0.099,2.307,0.946,2.974c0.615,0.483,1.457,0.519,2.239,0.534
		c9.019,0.176,18.037,0.351,27.056,0.527c8.402,0.164,16.609,0.242,25.009,0.045l2.604-77.045
		C559.631,629.426,552.996,628.43,548.239,628.578z"/>
	<g>
		<path style="fill:#7D7D7D;" d="M647.695,458.388c0.721,2.189,0.5,4.569-0.764,6.529c-1.378,2.135-3.799,2.923-5.795,4.319
			c-3.397,2.378-5.116,5.803-5.402,9.891c-0.362,5.172,0.525,10.404,0.797,15.565c0.29,5.502,0.605,11.003,0.936,16.503
			c1.359,22.596,2.995,45.175,4.327,67.773c1.324,22.466,2.249,44.922,2.232,67.43c-0.017,22.546-0.619,45.086-0.733,67.631
			c-0.114,22.582,0.55,45.15,1.393,67.714c0.107,2.869,0.219,5.738,0.334,8.606c0.049,1.21,1.936,1.216,1.887,0
			c-0.912-22.678-1.723-45.379-1.745-68.078c-0.022-22.656,0.582-45.307,0.722-67.962c0.14-22.624-0.514-45.19-1.77-67.779
			c-1.256-22.597-2.881-45.172-4.295-67.759c-0.688-10.987-1.204-21.985-2.063-32.959c-0.38-4.849-0.78-10.233,3.037-13.881
			c1.724-1.648,4.005-2.434,5.847-3.916c1.435-1.154,2.465-2.755,2.987-4.519c0.545-1.845,0.487-3.792-0.113-5.611
			C649.137,456.738,647.314,457.229,647.695,458.388L647.695,458.388z"/>
	</g>
	<g>
		<path style="fill:#7D7D7D;" d="M568.476,342.75c0.765,11.662,0.183,23.343,0.07,35.015c-0.056,5.746,0.005,11.498,0.409,17.232
			c0.35,4.965,0.982,9.825,2.673,14.532c3.007,8.369,8.612,15.986,15.956,21.055c6.982,4.82,15.838,7.288,24.306,6.354
			c4.686-0.517,9.257-2.063,13.134-4.778c4.453-3.119,7.809-7.5,10.459-12.197c0.542-0.962-0.937-1.826-1.479-0.865
			c-2.336,4.141-5.213,8.045-9.007,10.966c-3.272,2.519-7.143,4.137-11.196,4.879c-8.201,1.501-16.94-0.554-23.965-4.928
			c-7.42-4.619-13.192-12.081-16.286-20.212c-1.64-4.311-2.399-8.752-2.77-13.333c-0.443-5.483-0.557-10.987-0.536-16.487
			c0.047-12.412,0.759-24.832-0.055-37.234C570.117,341.656,568.403,341.648,568.476,342.75L568.476,342.75z"/>
	</g>
	<path style="fill:#BAE0E3;" d="M670.257,350.653c-0.805-9.868-4.448-20.861-13.545-24.77c-6.578-2.827-13.393,0.008-19.939-2.474
		c-5.893-2.234-10.763-6.362-16.496-8.908c-8.73-3.876-18.522-5.708-28.028-4.289c-6.289,0.939-12.543,2.512-18.899,2.338
		c-2.658-0.072-5.422-0.436-7.898,0.535c-2.891,1.134-4.836,3.901-6.026,6.769c-6.242,15.043,2.168,32.223,16.39,38.383
		c7.952,3.445,17.143,4.24,25.697,3.261c12.459-1.426,25.005-11.853,29.591,6.429c0.826,3.291,2.457,6.081,3.605,9.172
		c1.272,3.425,1.112,7.681,0.854,11.312c-0.047,0.661-0.105,1.345,0.121,1.968c0.226,0.623,0.828,1.165,1.486,1.085
		c0.388-0.047,0.722-0.294,1.007-0.562c1.032-0.966,1.675-2.262,2.41-3.469c3.625-5.958,10.366-9.231,15.88-3.828
		c2.003,1.963,3.119,5.291,3.029,8.044c-0.086,2.625-1.4,6.146-3.546,7.83c-0.285,0.224-0.554,0.457-0.815,0.699
		c-0.041,0.064-0.073,0.135-0.112,0.199c-0.031,0.096-0.051,0.198-0.08,0.295c1.659-1.005,3.122-2.298,4.406-3.792
		c2.649-3.083,4.563-6.992,5.997-10.833C669.542,374.798,671.233,362.62,670.257,350.653z"/>
	<g>
		<path style="fill:#7D7D7D;" d="M641.75,388.902c1.166-1.639,2.623-3.052,4.321-4.135c1.443-0.92,3.282-1.935,5.064-1.731
			c3.99,0.457,5.073,6.021,5.072,9.227c-0.002,8.147-5.828,15.084-13.735,16.765c-1.187,0.252-0.685,2.072,0.502,1.82
			c7.162-1.522,12.964-7.092,14.62-14.25c0.814-3.52,0.735-7.492-0.78-10.819c-1.3-2.856-3.903-5.085-7.182-4.55
			c-3.855,0.629-7.319,3.641-9.51,6.721C639.415,388.941,641.051,389.885,641.75,388.902L641.75,388.902z"/>
	</g>
	<g>
		<path style="fill:#7D7D7D;" d="M601.602,436.523c2.308,7.368,4.573,18.281-2.601,23.777c-0.951,0.729-0.012,2.368,0.953,1.629
			c7.989-6.12,6.094-17.528,3.469-25.909C603.059,434.866,601.237,435.359,601.602,436.523L601.602,436.523z"/>
	</g>
	<g>
		<path style="fill:#7D7D7D;" d="M647.595,409.687c-1.578,11.281-2.461,22.889-2.751,34.277c-0.245,9.633,2.365,16.646,12.03,19.797
			c11.636,3.794,26.29,2.665,36.06,11.026c8.615,7.373,10.173,20.855,12.593,31.249c3.216,13.815,7.156,27.432,10.129,41.316
			c1.686,7.874,3.728,15.945,3.955,24.024c0.224,7.965-2.044,15.497-4.408,23.004c-2.286,7.262-4.738,14.562-6.51,21.971
			c-1.163,4.861-1.338,9.98-3.04,14.711c-1.694,4.708-4.78,5.938-9.672,5.716c-3.594-0.163-7.166-0.61-10.704-1.261
			c-6.05-1.114-17.545-2.025-17.579-10.134c-0.015-3.58,1.74-7.183,2.96-10.454c1.622-4.351,3.243-8.703,4.865-13.054
			c2.909-7.805,6.427-15.626,8.736-23.626c2.049-7.099-0.908-14.017-2.734-20.885c-2.361-8.876-4.721-17.752-7.082-26.628
			c-0.312-1.173-2.133-0.675-1.82,0.502c2.192,8.242,4.384,16.484,6.576,24.726c1.077,4.051,2.216,8.092,3.229,12.159
			c1.242,4.989,0.319,8.958-1.427,13.668c-2.997,8.086-6.023,16.162-9.035,24.244c-2.203,5.911-5.82,12.418-6.121,18.827
			c-0.516,10.968,15.032,12.019,22.801,13.106c4.692,0.656,12.168,2.6,15.93-1.24c3.228-3.295,3.968-8.692,4.689-13.011
			c2.4-14.377,8.655-27.737,11.358-42.012c2.866-15.139-2.211-31.259-5.622-45.938c-3.138-13.503-6.633-26.943-9.991-40.392
			c-2.553-10.227-6.234-20.573-16.304-25.446c-6.641-3.214-14.125-4.363-21.311-5.733c-7.054-1.344-16.719-2.367-19.529-10.143
			c-2.294-6.349-0.848-13.658-0.419-20.208c0.519-7.932,0.865-15.77,1.968-23.655C649.581,409.001,647.763,408.488,647.595,409.687
			L647.595,409.687z"/>
	</g>
	<g>
		<path style="fill:#7D7D7D;" d="M605.867,631.815c12.527,0.19,25.056-0.287,37.532-1.428c1.199-0.11,1.211-1.998,0-1.887
			c-12.477,1.141-25.005,1.618-37.532,1.429C604.653,629.91,604.652,631.797,605.867,631.815L605.867,631.815z"/>
	</g>
	<g>
		<path style="fill:#7D7D7D;" d="M566.613,515.236c-0.356,9.096-0.75,18.191-1.134,27.287c-0.637,15.087-1.276,30.174-1.908,45.261
			c-0.722,17.216-1.437,34.432-2.135,51.648c-0.629,15.531-1.248,31.062-1.819,46.594c-0.362,9.857-0.758,19.717-0.941,29.58
			c-0.23,12.381-0.246,24.77-0.242,37.152c0.002,7.193-0.633,14.33-0.969,21.509c-0.159,3.393-0.515,7.105-0.008,10.479
			c0.415,2.76,3.957,2.28,6.054,2.428c7.363,0.52,14.76,0.552,22.127,0.099c3.63-0.223,7.253-0.565,10.861-1.023
			c1.177-0.15,2.692-0.123,3.773-0.639c1.196-0.57,1.279-1.672,1.376-2.873c1.188-14.733,1.677-29.544,2.07-44.317
			c0.789-29.67,0.802-59.354,1.566-89.025c0.769-29.886,1.673-59.768,2.712-89.646c0.518-14.888,0.935-29.79,1.706-44.668
			c0.383-7.39,0.861-14.775,1.131-22.17c0.131-3.594,0.228-7.194,0.209-10.791c-0.015-2.808-0.247-5.57-1.401-8.163
			c-1.151-2.587-3.137-4.321-5.102-6.279c-1.072-1.069-2.314-2.31-2.604-3.855c-0.378-2.009,0.743-4.089,1.574-5.837
			c0.519-1.091-1.108-2.05-1.629-0.952c-1.229,2.587-2.624,5.514-1.412,8.367c1.056,2.484,3.445,4.151,5.244,6.059
			c4.73,5.012,3.501,12.899,3.31,19.204c-0.44,14.529-1.449,29.042-1.992,43.57c-1.099,29.439-2.068,58.882-2.905,88.33
			c-0.836,29.415-1.34,58.824-1.757,88.248c-0.206,14.501-0.484,29.003-1.052,43.494c-0.288,7.332-0.649,14.661-1.115,21.983
			c-0.109,1.72-0.224,3.44-0.345,5.159c-0.054,0.767,0.131,2.115-0.679,2.539c-0.874,0.458-2.332,0.333-3.311,0.454
			c-3.61,0.444-7.234,0.772-10.865,0.982c-7.262,0.42-14.552,0.365-21.807-0.16c-0.829-0.06-1.744-0.035-2.559-0.205
			c-1.265-0.264-1.331-0.781-1.374-1.964c-0.065-1.79-0.067-3.581-0.027-5.372c0.078-3.562,0.323-7.117,0.56-10.67
			c0.961-14.433,0.527-28.952,0.675-43.412c0.104-10.168,0.422-20.326,0.782-30.488c0.515-14.538,1.087-29.074,1.669-43.609
			c0.68-16.991,1.382-33.981,2.091-50.971c0.654-15.656,1.315-31.312,1.976-46.968c0.452-10.687,0.908-21.373,1.345-32.061
			c0.059-1.436,0.117-2.872,0.173-4.308C568.547,514.021,566.66,514.023,566.613,515.236L566.613,515.236z"/>
	</g>
	<g>
		<path style="fill:#7D7D7D;" d="M703.058,636.334c0.013,13.385,0.964,26.748,0.913,40.135c-0.025,6.54,0.187,13.077,0.338,19.614
			c0.152,6.575,0.103,13.147,0.123,19.723c0.041,13.231,0.335,26.46,0.401,39.691c0.033,6.596,0.01,13.194-0.132,19.789
			c-0.035,1.644-0.078,3.287-0.128,4.93c-0.012,0.379,0.146,2.068-0.215,2.321c-0.132,0.092-0.817,0.086-1.042,0.11
			c-0.572,0.06-1.145,0.118-1.717,0.177c-3.274,0.341-6.547,0.697-9.819,1.063c-14.83,1.661-29.635,3.535-44.461,5.222
			c-1.238,0.141-1.252,2.101,0,1.958c13.599-1.547,27.179-3.252,40.778-4.805c3.273-0.374,6.546-0.739,9.821-1.091
			c1.635-0.176,3.272-0.348,4.908-0.516c1.16-0.119,2.791-0.004,3.397-1.246c0.573-1.174,0.302-2.903,0.339-4.179
			c0.052-1.808,0.095-3.617,0.129-5.426c0.062-3.295,0.095-6.591,0.109-9.887c0.054-13.725-0.247-27.448-0.366-41.172
			c-0.059-6.765,0.027-13.531-0.05-20.296c-0.077-6.686-0.329-13.368-0.421-20.053c-0.105-7.595-0.072-15.18-0.333-22.774
			c-0.267-7.762-0.604-15.522-0.611-23.289C705.016,635.074,703.057,635.072,703.058,636.334L703.058,636.334z"/>
	</g>
	<g>
		<path style="fill:#7D7D7D;" d="M670.563,633.672c-0.837,2.562-1.674,5.123-2.512,7.685c-0.158,0.484,0.184,1.03,0.659,1.161
			c0.512,0.141,1.002-0.173,1.161-0.659c0.837-2.562,1.674-5.123,2.512-7.685c0.158-0.484-0.184-1.03-0.659-1.161
			C671.212,632.872,670.722,633.186,670.563,633.672L670.563,633.672z"/>
	</g>
	<g>
		<path style="fill:#7D7D7D;" d="M693.083,638.29c-0.516,2.105-1.232,4.159-2.149,6.098c-0.218,0.46-0.128,1.018,0.339,1.291
			c0.41,0.24,1.072,0.124,1.291-0.339c0.994-2.101,1.786-4.291,2.339-6.549c0.117-0.479-0.152-1.045-0.659-1.161
			C693.756,637.52,693.208,637.777,693.083,638.29L693.083,638.29z"/>
	</g>
	<g>
		<path style="fill:#7D7D7D;" d="M570.883,786.646c-0.331,11.343,0.15,22.717,0.632,34.048c0.566,13.333,1.313,26.657,2.006,39.984
			c0.648,12.463,1.109,24.917,1.429,37.393c0.236,9.203,0.472,18.405,0.708,27.608c0.237,9.236,0.361,18.481,0.866,27.707
			c0.123,2.243,0.156,4.482,0.225,6.726c0.029,0.951,0.343,1.664,1.222,2.12c1.889,0.981,4.59,0.439,6.589,0.166
			c7.67-1.046,15.498-1.168,23.226-1.467c4.592-0.178,9.264-0.099,13.838-0.554c1.99-0.198,1.75-1.611,1.613-3.263
			c-0.19-2.292-0.357-4.585-0.503-6.88c-0.582-9.154-0.826-18.328-0.84-27.499c-0.027-18.417,0.872-36.818,1.798-55.207
			c0.868-17.238,1.616-34.474,2.071-51.729c0.441-16.71,0.733-33.424,1.046-50.136c0.309-16.534,0.626-33.068,1.131-49.597
			c0.116-3.809,0.244-7.618,0.384-11.427c0.045-1.229-1.865-1.227-1.91,0c-0.572,15.517-0.927,31.041-1.237,46.565
			c-0.321,16.076-0.587,32.153-0.934,48.228c-0.342,15.83-0.752,31.661-1.458,47.48c-0.784,17.557-1.848,35.103-2.412,52.669
			c-0.567,17.645-0.626,35.326,0.604,52.946c0.077,1.105,0.159,2.209,0.247,3.313c0.069,0.877,0.466,2.288,0.183,3.124
			c0.146-0.19,0.292-0.38,0.439-0.571c-0.363,0.247-1.299,0.15-1.696,0.171c-0.492,0.026-0.985,0.046-1.478,0.063
			c-1.158,0.042-2.317,0.075-3.475,0.118c-2.3,0.085-4.6,0.168-6.899,0.257c-4.649,0.179-9.298,0.378-13.944,0.645
			c-3.239,0.186-6.478,0.366-9.69,0.825c-1.226,0.175-2.464,0.327-3.704,0.339c-0.513,0.005-1.963,0.127-2.296-0.398
			c-0.118-0.186-0.005-0.82-0.007-1.047c-0.005-0.581-0.017-1.162-0.034-1.742c-0.033-1.164-0.088-2.327-0.149-3.489
			c-0.118-2.249-0.265-4.497-0.345-6.748c-0.165-4.678-0.245-9.36-0.365-14.039c-0.238-9.288-0.477-18.576-0.715-27.864
			c-0.341-13.285-0.693-26.557-1.364-39.83c-0.671-13.272-1.427-26.54-2.034-39.815c-0.546-11.918-1.078-23.864-0.929-35.797
			c0.014-1.133,0.037-2.265,0.07-3.397C572.829,785.417,570.919,785.418,570.883,786.646L570.883,786.646z"/>
	</g>
	<path style="fill:#BAE0E3;" d="M579.911,674.546c0.012,1.15,0.017,2.329-0.391,3.408c-0.702,1.86-2.505,3.114-4.339,3.992
		c-3.798,1.818-8.162,2.514-12.368,1.972c-1.101-0.142-2.22-0.378-3.154-0.961c-2.218-1.385-2.776-4.242-3.047-6.781
		c-0.637-5.983-0.792-12.001-0.714-18.013c0.059-4.648-1.703-11.857,0.18-16.184c0.65-1.493,2.673-2.484,3.967-1.495
		c0.729,0.558,0.997,1.532,1.605,2.219c3.624,4.088,15.168-9.43,17.484,2.521C580.92,654.436,579.813,665.18,579.911,674.546z"/>
	<path style="fill:#BAE0E3;" d="M691.752,684.108c6.376-2.44,7.758-9.6,7.708-17.639c-0.041-6.635-0.083-13.269-0.124-19.904
		c-0.005-0.838-0.053-1.77-0.732-2.371c-1.092-0.967-2.907-0.426-4.337,0.049c-4.891,1.626-10.463,1.692-15.466,0.181
		c-5.123-1.547-15.96-8.304-17.853-0.049c-1.979,8.633-0.007,19.974,0.409,28.783c0.109,2.309,0.249,4.681,1.205,6.786
		c4.439,9.763,15.871,5.02,23.718,5.051C688.421,685.004,690.229,684.691,691.752,684.108z"/>
	<g>
		<path style="fill:#7D7D7D;" d="M625.902,694.55c0.845,17.669,1.843,35.332,3.029,52.982c1.138,16.935,2.447,33.858,3.93,50.765
			c1.488,16.957,3.151,33.898,4.965,50.822c1.875,17.494,3.909,34.97,6.06,52.432c1.115,9.059,2.267,18.114,3.464,27.163
			c0.563,4.258,1.107,8.481,1.323,12.774c0.199,3.955,0.331,7.92,0.938,11.84c0.299,1.932,0.735,3.834,1.35,5.691
			c0.172,0.519,0.657,0.792,1.192,0.677c4.071-0.872,8.235-0.698,12.368-0.573c4.208,0.128,8.399-0.012,12.6-0.28
			c4.223-0.27,8.484-0.587,12.672-1.212c1.374-0.205,2.521-0.791,2.887-2.233c0.365-1.439,0.149-3.139,0.16-4.615
			c0.091-12.763,0.256-25.525,0.442-38.287c0.413-28.427,0.941-56.853,1.357-85.28c0.208-14.204,0.394-28.408,0.48-42.613
			c0.008-1.247-1.931-1.249-1.938,0c-0.159,26.119-0.615,52.235-1.046,78.351c-0.444,26.906-0.927,53.813-1.175,80.722
			c-0.029,3.172-0.055,6.344-0.075,9.516c-0.007,1.156,0.122,2.261-1.259,2.521c-1.213,0.229-2.478,0.305-3.705,0.437
			c-2.411,0.26-4.826,0.476-7.245,0.649c-4.549,0.326-9.105,0.533-13.665,0.4c-4.477-0.13-8.963-0.318-13.373,0.627
			c0.397,0.226,0.795,0.451,1.192,0.677c-2.549-7.694-1.766-15.92-2.754-23.859c-1.125-9.043-2.382-18.069-3.511-27.112
			c-2.194-17.574-4.269-35.164-6.19-52.771c-1.833-16.799-3.522-33.614-5.04-50.445c-1.521-16.864-2.87-33.744-4.045-50.636
			c-1.214-17.439-2.245-34.891-3.118-52.35c-0.113-2.26-0.223-4.52-0.331-6.781C627.781,693.309,625.843,693.301,625.902,694.55
			L625.902,694.55z"/>
	</g>
	<path style="fill:#7D7D7D;" d="M622.392,958.761l-44.439,2.939c-2.136,0.77-4.172,1.781-6.259,2.668
		c-1.942,0.826-3.98,1.253-5.934,2.002c-1.413,0.541-2.65,1.427-4.071,1.973c-2.062,0.793-4.145,1.514-6.17,2.403
		c-8.019,3.519-15.909,7.33-23.65,11.424c-1.32,0.698-2.843,2.217-1.923,3.393c0.351,0.449,0.948,0.612,1.504,0.734
		c7.209,1.586,14.708,0.799,22.031-0.134c15.463-1.972,30.838-4.569,46.209-7.166c3.905-0.66,7.854-1.332,11.486-2.911
		C617.963,973.134,623.497,966.079,622.392,958.761z"/>
	<path style="fill:#7D7D7D;" d="M691.803,953.572l-39.635,6.221c-1.153,0.284-1.2,1.863-1.621,2.974
		c-0.296,0.78-0.872,1.416-1.435,2.031c-5.816,6.356-10.362,13.298-16.243,19.529c-1.893,2.006-5.375,6.902-3.088,9.81
		c0.492,0.626,1.251,0.972,1.993,1.26c7.464,2.9,16.022,2.082,23.419-0.984c8.419-3.49,15.616-9.8,23.522-14.342
		c4.414-2.536,9.12-5.284,12.274-9.386c1.604-2.087,2.743-4.458,3.097-7.084C694.625,959.606,691.696,957.097,691.803,953.572z"/>
	<path style="fill:#EDFEFF;" d="M761.329,331.909L761.329,331.909c-5.314-5.314-13.93-5.314-19.245,0l-6.836,6.836l-6.836-6.836
		c-5.314-5.314-13.93-5.314-19.245,0l0,0c-5.314,5.314-5.314,13.93,0,19.245l6.836,6.836l19.245,19.245l19.245-19.245l0,0
		l6.836-6.836C766.643,345.839,766.643,337.223,761.329,331.909z"/>
	<path style="fill:#EDFEFF;" d="M746.978,276.391L746.978,276.391c-3.437-3.437-9.01-3.437-12.448,0l-4.422,4.422l-4.422-4.422
		c-3.437-3.437-9.01-3.437-12.447,0l0,0c-3.437,3.437-3.437,9.01,0,12.448l4.421,4.422l12.448,12.448l12.448-12.448l0,0l4.422-4.422
		C750.415,285.402,750.415,279.829,746.978,276.391z"/>
	<path style="fill:#EDFEFF;" d="M773.229,237.761L773.229,237.761c-2.122-2.122-5.562-2.122-7.684,0l-2.729,2.729l-2.729-2.729
		c-2.122-2.122-5.562-2.122-7.684,0l0,0c-2.122,2.122-2.122,5.562,0,7.684l2.729,2.729l7.684,7.684l7.684-7.684l0,0l2.729-2.729
		C775.351,243.323,775.351,239.883,773.229,237.761z"/>
	<path style="fill:#EDFEFF;" d="M789.481,302.217L789.481,302.217c-2.75-2.75-7.208-2.75-9.958,0l-3.537,3.537l-3.537-3.537
		c-2.75-2.75-7.208-2.75-9.958,0l0,0c-2.75,2.75-2.75,7.208,0,9.958l3.537,3.537l9.958,9.958l9.958-9.958l0,0l3.537-3.537
		C792.231,309.425,792.231,304.967,789.481,302.217z"/>
	<g>
		<g>
			<path style="fill:#BAE0E3;" d="M466.268,997.357c-3.369-8.382-8.574-15.681-16.014-20.903c-6.919-4.857-15.082-7.594-23.19-9.716
				c-8.679-2.272-17.588-3.778-26.121-6.581c-8.164-2.681-17.285-6.811-21.79-14.563c-6.013-10.346,1.303-21.185,1.758-31.9
				c0.399-9.389-4.098-18.044-10.439-24.706c-15.45-16.232-38.881-21.076-59.897-25.646c-21.572-4.691-43.7-9.336-61.773-22.795
				c-7.877-5.866-14.64-13.375-18.746-22.358c-2.254-4.93-4.354-11.055-2.569-16.439c1.526-4.602,5.792-7.106,10.312-8.082
				c4.694-1.013,9.543-0.551,14.199,0.421c5.545,1.157,10.939,2.941,16.208,5.006c10.627,4.164,20.781,9.452,31.503,13.385
				c9.01,3.305,18.461,5.66,28.097,4.169c8.42-1.303,16.423-6.333,18.479-15.07c2.179-9.261-2.818-19.01-9.639-25.063
				c-8.314-7.377-19.471-10.375-29.637-14.227c-19.41-7.356-36.503-20.334-48.773-37.091
				c-11.282-15.409-21.024-36.275-16.395-55.785c2.275-9.587,8.731-17.506,18.054-20.975c9.509-3.539,20.296-2.705,29.507,1.341
				c9.993,4.39,18.22,11.927,25.133,20.237c7.125,8.565,13.065,18.091,18.477,27.808c10.892,19.557,19.616,40.294,31.53,59.285
				c2.924,4.661,6.039,9.202,9.398,13.561c3.094,4.016,6.418,8.482,11.211,10.556c4.19,1.813,8.77,0.875,11.973-2.351
				c3.276-3.301,4.744-7.917,5.349-12.42c0.739-5.506,0.531-11.61,3.677-16.443c2.154-3.309,5.733-5.314,9.528-6.134
				c8.467-1.829,17.252,1.915,21.987,9.08c5.622,8.506,5.997,19.602,3.9,29.301c-2.61,12.068-8.516,23.05-12.398,34.703
				c-3.491,10.479-5.424,22.441-1.591,33.109c2.724,7.58,9.162,14.527,17.258,16.324c3.65,0.81,7.434,0.262,10.418-2.083
				c3.721-2.926,4.792-8.222,8.751-10.846c4.846-3.212,9.901,1.271,12.559,5.176c3.195,4.693,4.872,10.515,6.256,15.965
				c6.11,24.061,1.576,48.51,0.18,72.818c-0.679,11.822-0.491,23.783,2.325,35.342c0.41,1.683,3.008,0.97,2.597-0.716
				c-5.977-24.539,0.109-49.77,0.745-74.532c0.308-11.997-0.565-24.161-3.817-35.755c-1.487-5.303-3.272-10.889-6.587-15.362
				c-2.619-3.534-6.589-7.061-11.302-6.719c-5.041,0.366-7.749,4.672-10.153,8.56c-2.274,3.678-5.311,6.225-9.857,5.782
				c-9.057-0.883-15.67-9.581-17.714-17.781c-2.898-11.629,0.534-23.755,4.718-34.612c4.276-11.098,9.658-22.017,11.091-33.96
				c1.159-9.667-0.312-20.176-6.461-28.015c-5.189-6.614-13.724-9.833-22.021-8.656c-3.75,0.532-7.372,2.033-10.181,4.612
				c-3.598,3.304-5.052,7.989-5.695,12.701c-0.725,5.316-0.6,10.909-3.301,15.721c-2.596,4.625-7.36,6.972-12.291,4.165
				c-4.708-2.68-8.082-7.783-11.208-12.062c-3.327-4.553-6.404-9.285-9.304-14.12c-5.78-9.641-10.849-19.684-15.878-29.731
				c-9.963-19.905-19.892-40.489-34.877-57.203c-7.199-8.029-15.818-15.023-26.006-18.833c-9.045-3.382-19.532-3.793-28.641-0.409
				c-9.041,3.359-15.877,10.447-18.988,19.567c-3.114,9.13-2.504,19.26-0.226,28.503c4.816,19.541,17.396,37.475,32.379,50.629
				c7.718,6.776,16.366,12.51,25.67,16.869c10.151,4.755,21.361,7.221,31.045,12.967c8.439,5.007,16.112,14.261,14.946,24.697
				c-1.095,9.801-10.416,14.573-19.328,15.249c-10.27,0.779-20.191-2.674-29.561-6.503c-10.735-4.386-21.07-9.758-32.076-13.473
				c-8.975-3.03-19.769-5.917-29.034-2.368c-4.029,1.543-7.39,4.386-8.919,8.501c-1.95,5.245-0.549,11.126,1.408,16.148
				c7.28,18.687,24.698,30.895,42.665,38.216c22.468,9.156,47.084,10.961,69.997,18.694c10.016,3.381,19.65,8.061,27.415,15.371
				c7.001,6.59,12.227,15.396,11.624,25.291c-0.371,6.077-2.882,11.767-3.812,17.75c-0.752,4.837-0.32,9.664,1.928,14.058
				c4.002,7.824,12.37,12.419,20.261,15.45c16.483,6.331,35.31,6.505,50.527,16.127c7.694,4.865,13.198,12.09,16.574,20.491
				C464.31,999.661,466.915,998.967,466.268,997.357L466.268,997.357z"/>
		</g>
		<g>
			<path style="fill:#BAE0E3;" d="M297.595,706.099c14.627,15.705,28.66,31.959,42.057,48.726
				c13.425,16.802,26.205,34.119,38.317,51.89c12.087,17.734,23.508,35.921,34.231,54.512c10.723,18.59,20.748,37.582,30.042,56.926
				c9.313,19.384,17.893,39.119,25.699,59.158c0.963,2.472,1.913,4.948,2.853,7.428c0.608,1.605,3.213,0.909,2.597-0.716
				c-7.647-20.176-16.055-40.065-25.206-59.605c-9.136-19.507-19.013-38.668-29.597-57.43
				c-10.624-18.832-21.96-37.262-33.976-55.237c-11.946-17.871-24.568-35.287-37.82-52.212
				c-13.329-17.024-27.305-33.541-41.895-49.498c-1.79-1.958-3.59-3.906-5.397-5.847
				C298.315,702.924,296.414,704.832,297.595,706.099L297.595,706.099z"/>
		</g>
		<g>
			<path style="fill:#BAE0E3;" d="M460.695,854.164c1.296,20.771,2.596,42.3-4.645,62.219c-1.892,5.205-4.388,10.169-7.496,14.755
				c-0.975,1.439,1.357,2.788,2.325,1.359c11.749-17.334,13.965-38.878,13.457-59.288c-0.158-6.356-0.553-12.702-0.949-19.046
				C463.281,852.442,460.587,852.43,460.695,854.164L460.695,854.164z"/>
		</g>
		<g>
			<path style="fill:#BAE0E3;" d="M234.835,794.301c3.527,4.437,7.934,7.899,12.178,11.604c4.196,3.663,7.799,7.913,12.272,11.268
				c8.938,6.706,19.261,11.632,30.118,14.292c5.79,1.419,11.746,2.215,17.704,2.381c6.133,0.171,12.195-0.463,18.253-1.366
				c5.9-0.879,11.762-1.804,17.736-1.98c5.763-0.17,11.535-0.089,17.29,0.26c13.031,0.789,26.036,2.945,38.427,7.122
				c0.85,0.286,1.69-0.467,1.704-1.298c0.119-6.694,0.195-13.452,1.954-19.961c1.689-6.25,5.015-11.734,8.118-17.353
				c6.068-10.99,9.145-23.044,9.645-35.572c0.275-6.903-0.23-13.824-1.445-20.623c-0.305-1.703-2.9-0.982-2.597,0.716
				c2.154,12.051,1.972,24.69-0.964,36.595c-1.486,6.027-3.769,11.703-6.753,17.141c-3.039,5.539-6.364,10.951-8.216,17.039
				c-2.172,7.137-2.303,14.623-2.435,22.018c0.568-0.433,1.136-0.866,1.704-1.298c-10.817-3.646-22.111-5.738-33.463-6.785
				c-11.446-1.056-23.098-1.251-34.498,0.348c-5.934,0.832-11.834,1.917-17.828,2.227c-6.03,0.312-12.104-0.018-18.055-1.045
				c-11.122-1.919-21.745-6.185-31.144-12.428c-2.708-1.799-5.31-3.733-7.69-5.952c-2.257-2.104-4.362-4.365-6.622-6.465
				c-4.563-4.242-9.582-7.871-13.489-12.786C235.661,791.04,233.767,792.957,234.835,794.301L234.835,794.301z"/>
		</g>
		<g>
			<path style="fill:#BAE0E3;" d="M225.198,802.629c6.042,10.887,16.413,18.26,26.448,25.172
				c11.239,7.742,22.875,14.95,36.117,18.693c27.671,7.821,56.504,2.381,84.574,0.506c7.683-0.513,15.543-0.753,22.968,1.617
				c6.33,2.02,11.976,5.885,15.983,11.205c1.03,1.367,3.369,0.027,2.326-1.359c-3.492-4.637-7.999-8.365-13.294-10.775
				c-5.998-2.73-12.504-3.693-19.055-3.723c-7.229-0.034-14.476,0.722-21.667,1.38c-7.343,0.671-14.681,1.413-22.037,1.924
				c-13.833,0.962-27.875,1.123-41.537-1.571c-6.749-1.331-13.361-3.355-19.613-6.235c-6.2-2.856-12.056-6.398-17.744-10.157
				c-11.503-7.602-24.274-15.662-31.142-28.036C226.682,799.754,224.356,801.111,225.198,802.629L225.198,802.629z"/>
		</g>
		<g>
			<path style="fill:#BAE0E3;" d="M427.824,743.955c4.265,16.049,2.518,33.02-2.761,48.613c-2.672,7.894-6.384,15.224-10.402,22.502
				c-3.733,6.763-7.961,14.043-8.128,21.968c-0.171,8.104,2.343,16.218,5.094,23.751c0.59,1.615,3.193,0.917,2.597-0.716
				c-2.469-6.76-4.711-13.895-4.981-21.138c-0.137-3.689,0.517-7.024,1.829-10.465c1.541-4.041,3.612-7.862,5.695-11.643
				c3.983-7.23,7.714-14.492,10.462-22.296c2.732-7.758,4.587-15.831,5.345-24.025c0.844-9.133,0.205-18.393-2.153-27.267
				C429.976,741.566,427.378,742.276,427.824,743.955L427.824,743.955z"/>
		</g>
		<g>
			<path style="fill:#BAE0E3;" d="M455.168,939.223c15.872-16.74,20.485-40.3,21.458-62.587c0.309-7.083,0.304-14.174,0.297-21.261
				c-0.002-1.733-2.695-1.736-2.693,0c0.022,22.755-0.008,46.711-10.743,67.426c-2.738,5.284-6.125,10.197-10.223,14.518
				C452.072,938.577,453.973,940.484,455.168,939.223L455.168,939.223z"/>
		</g>
		<g>
			<path style="fill:#BAE0E3;" d="M378.386,919.124c8.666,5.63,18.22,9.558,27.921,13.014c4.915,1.751,9.864,3.408,14.773,5.177
				c4.945,1.782,9.879,3.577,15.077,4.482c5.712,0.995,11.618,0.966,17.077-1.172c1.596-0.625,0.901-3.231-0.716-2.597
				c-9.718,3.808-20.109,0.562-29.432-2.842c-9.401-3.433-19.007-6.357-28.196-10.346c-5.253-2.28-10.339-4.92-15.143-8.041
				C378.288,915.851,376.936,918.182,378.386,919.124L378.386,919.124z"/>
		</g>
		<g>
			<path style="fill:#BAE0E3;" d="M449.722,929.691c-9.483,1.366-18.97-0.969-27.752-4.448c-9.16-3.629-17.827-8.469-26.564-12.99
				c-5.22-2.701-10.44-5.402-15.66-8.103c-1.537-0.795-2.901,1.528-1.359,2.325c9.458,4.894,18.891,9.841,28.381,14.674
				c8.725,4.443,17.777,8.725,27.446,10.625c5.372,1.055,10.802,1.295,16.225,0.513C452.147,932.041,451.42,929.446,449.722,929.691
				L449.722,929.691z"/>
		</g>
		<g>
			<path style="fill:#BAE0E3;" d="M298.199,704.017c-8.89,0.066-16.608-5.29-22.374-11.634
				c-6.402-7.042-11.225-15.372-17.238-22.737c-3.46-4.237-7.16-8.271-11.066-12.099c-1.239-1.214-3.145,0.689-1.904,1.904
				c7.199,7.057,13.432,14.828,19.231,23.057c5.401,7.663,11.079,15.502,19.361,20.275c4.263,2.457,9.047,3.964,13.992,3.927
				C299.932,706.697,299.936,704.004,298.199,704.017L298.199,704.017z"/>
		</g>
		<g>
			<path style="fill:#BAE0E3;" d="M299.212,703.614c-6.677-5.416-11.982-12.497-15.154-20.503
				c-3.429-8.655-3.218-18.253-7.162-26.723c-2.098-4.505-5.13-8.561-8.806-11.899c-1.281-1.163-3.191,0.736-1.904,1.904
				c3.269,2.969,5.962,6.478,7.939,10.431c2.175,4.35,3.122,9.048,3.942,13.805c0.777,4.509,1.703,8.931,3.394,13.198
				c1.559,3.937,3.556,7.686,6.002,11.145c2.792,3.947,6.089,7.501,9.844,10.547C298.642,706.601,300.559,704.707,299.212,703.614
				L299.212,703.614z"/>
		</g>
		<g>
			<path style="fill:#BAE0E3;" d="M299.402,706.519c5.598-6.717,10.071-14.912,10.173-23.857c0.055-4.867-1.273-9.672-2.45-14.357
				c-1.137-4.525-2.506-9.019-4.863-13.075c-0.87-1.498-3.199-0.144-2.325,1.359c2.168,3.732,3.426,7.842,4.483,12.003
				c1.132,4.453,2.44,9.026,2.463,13.651c0.041,8.348-4.166,16.107-9.386,22.371C296.395,705.937,298.29,707.852,299.402,706.519
				L299.402,706.519z"/>
		</g>
		<g>
			<path style="fill:#BAE0E3;" d="M303.59,709.856c5.829-3.929,11.916-8.22,14.605-14.995c1.466-3.692,1.713-7.755,1.779-11.685
				c0.068-4.012,0.245-8.211-1.233-12.017c-0.621-1.598-3.226-0.903-2.597,0.716c1.37,3.53,1.197,7.357,1.141,11.078
				c-0.056,3.638-0.248,7.335-1.529,10.78c-2.323,6.249-8.232,10.23-13.526,13.797C300.802,708.494,302.148,710.828,303.59,709.856
				L303.59,709.856z"/>
		</g>
		<g>
			<path style="fill:#BAE0E3;" d="M240.633,696.767c14.189,12.016,31.962,22.076,51.223,19.899
				c3.992-0.451,10.387-1.048,12.237-5.334c0.68-1.574-1.639-2.948-2.326-1.359c-0.722,1.673-2.346,2.374-4.009,2.853
				c-2.065,0.595-4.213,0.976-6.349,1.195c-4.435,0.455-8.939,0.245-13.323-0.547c-8.582-1.551-16.591-5.182-23.893-9.883
				c-4.088-2.631-7.948-5.589-11.656-8.729C241.222,693.749,239.308,695.644,240.633,696.767L240.633,696.767z"/>
		</g>
	</g>
	<g>
		<path style="fill:#BAE0E3;" d="M451.799,742.561c-4.774,1.254-9.462,2.882-14.325,3.725c-6.68,1.159-13.525,0.812-20.275,1.443
			c-6.697,0.626-13.263,2.211-19.801,3.791c-6.505,1.572-13.009,3.144-19.514,4.716c-1.314-10.635-2.123-21.341-2.401-32.06
			c12.877,4.003,26.009,7.647,39.469,7.784c10.384,0.105,20.767-1.983,30.353-5.961c7.356-3.053,19.576-8.521,23.614-15.814
			c-23.395,5.274-47.765,2.89-71.678,4.711c-7.603,0.579-15.496,1.714-21.817,5.952c-0.16-10.144,0.141-20.292,0.927-30.394
			c14.722,7.112,32.327,8.07,47.704,2.488c6.454-2.343,12.51-5.767,19.118-7.634c-21.728-5.989-45.258-5.228-66.564,2.118
			c0.096-1.095,0.185-2.191,0.292-3.284c0.715-7.314,1.722-14.594,3.002-21.829c0.204,0.035,0.401,0.005,0.561-0.141
			c0.196-0.178,0.245-0.463,0.277-0.727c0-0.002,0-0.004,0-0.005c6.888,2.634,13.077,1.518,21.371,1.723
			c9.734,0.241,19.429-1.246,28.984-3.123c3.322-0.653,6.729-1.392,9.533-3.289c-17.128-7.378-39.752-3.663-58.436,1.494
			c3.565-4.073,6.491-8.715,9.371-13.321c9.176-14.678,18.637-30.241,19.307-47.538c-16.468,14.609-27.611,35.062-31.093,56.789
			c-0.722-2.175-1.645-4.304-2.212-6.66c-1.279-5.311-2.628-10.512-4.63-15.61c-3.972-10.114-9.68-19.554-16.88-27.699
			c0.201,11.002,3.677,21.639,8.451,31.46c2.192,4.509,5.028,8.77,6.686,13.401c1.543,4.312,3.226,8.072,6.323,11.328
			c-1.535,8.446-2.694,16.961-3.487,25.515c-2.537-3.45-7.385-7.827-8.873-9.525c-4.288-4.891-8.788-9.605-13.654-13.926
			c-8.792-7.806-18.889-14.365-30.16-17.928c1.852,8.147,6.09,15.209,12.551,20.708c3.9,3.319,7.389,5.852,10.858,9.535
			c3.468,3.681,8.142,6.074,12.7,8.116c5.181,2.321,10.737,4.789,16.305,6.191c-0.887,10.774-1.219,21.599-1.012,32.411
			c-9.164-6.459-16.581-14.313-27.248-18.905c-6.662-2.867-13.272-4.154-20.278-5.532c-3.402-0.669-6.406-2.258-9.945-2.645
			c-3.322-0.364-6.684-0.262-10.012-0.032c-3.504,0.242-6.999,0.606-10.477,1.092c5.044,6.621,12.708,14.532,20.32,18.072
			c8.397,3.905,16.567,6.499,25.745,8.045c10.531,1.775,21.307,2.108,31.924,0.946c0.005,0.221,0.013,0.442,0.018,0.662
			l-0.111,0.103c0.038,0.012,0.077,0.024,0.115,0.036c0.222,9.005,0.798,17.999,1.725,26.941c0.167,1.614,0.357,3.226,0.547,4.838
			c-27.683-13.021-59.876-13.551-90.135-8.69c15.753,6.248,31.934,12.585,48.878,12.893c9.992,0.182,19.95-1.753,29.934-1.315
			c3.893,0.17,7.906,0.663,11.622-0.411c0.756,6.016,1.667,12.013,2.75,17.979c0.309,1.703,2.905,0.981,2.597-0.716
			c-1.049-5.781-1.942-11.594-2.684-17.43c26.462,3.698,53.699,1.766,79.363-5.669c8.173-2.368,16.627-5.59,21.902-12.267
			C470.043,739.171,460.749,740.209,451.799,742.561z"/>
		<path style="fill:#BAE0E3;" d="M342.685,788.495c-6.466-1.452-12.973-2.392-19.536-3.261c-5.366-0.711-10.659-2.383-16.102-3.119
			c-5.912-0.799-11.906-1.001-17.859-0.598c-2.976,0.201-5.941,0.553-8.881,1.057c-1.702,0.292-6.518,2.302-8.007,1.769
			c13.689,4.907,27.806,8.616,42.136,11.087c7.039,1.214,14.13,2.13,21.247,2.742c2.316,0.199,6.89,1.51,8.343-0.497
			c0.23-0.317,0.215-1.719,0.06-3.336C343.84,791.753,343.232,788.618,342.685,788.495z"/>
	</g>
	<path style="fill:#BAE0E3;" d="M449.113,781.974c-1.991,0.253-4.044,0.526-5.774,1.541l-5.717,13.499
		c4.589,0.255,8.841-2.197,12.779-4.567c2.548-1.533,5.096-3.066,7.644-4.599c1.519-0.914,3.057-1.843,4.294-3.113
		c1.237-1.27,2.161-2.941,2.166-4.714C459.375,780.673,454.244,781.324,449.113,781.974z"/>
	<g>
		<path style="fill:#BAE0E3;" d="M503.495,867.813c-3.248,23.586-2.057,47.526-2.766,71.324c-0.251,8.405-0.769,16.912-2.758,25.046
			c16.286-22.155,24.377-49.446,28.208-76.705c3.905-27.784,3.727-55.959,5.48-83.961
			C514.938,820.467,506.743,844.227,503.495,867.813z"/>
		<path style="fill:#BAE0E3;" d="M495.909,970.981c0.826-2.228,1.499-4.499,2.062-6.798c-0.314,0.427-0.61,0.865-0.93,1.289
			L495.909,970.981z"/>
	</g>
	<g>
		<path style="fill:#DDF3F5;" d="M502.187,956.997c5.795-14.496,9.851-29.618,12.753-44.944c2.923-15.437,4.719-31.066,6.101-46.708
			c0.779-8.815,1.425-17.641,2.067-26.467c0.104-1.438-2.136-1.432-2.24,0c-1.132,15.585-2.281,31.177-4.147,46.695
			c-1.854,15.416-4.438,30.776-8.438,45.79c-2.264,8.498-4.991,16.87-8.256,25.037C499.492,957.74,501.658,958.321,502.187,956.997
			L502.187,956.997z"/>
	</g>
	<g>
		<path style="fill:#DDF3F5;" d="M515.648,902.291c-1.756-6.062-2.935-12.27-3.492-18.557c-0.126-1.424-2.367-1.438-2.24,0
			c0.574,6.485,1.76,12.898,3.572,19.152C513.889,904.268,516.051,903.68,515.648,902.291L515.648,902.291z"/>
	</g>
	<g>
		<path style="fill:#DDF3F5;" d="M519.47,875.426c-2.628-4.06-4.359-8.677-4.949-13.484c-0.074-0.6-0.462-1.12-1.12-1.12
			c-0.548,0-1.194,0.515-1.12,1.12c0.64,5.21,2.398,10.202,5.255,14.615C518.317,877.762,520.256,876.641,519.47,875.426
			L519.47,875.426z"/>
	</g>
	<g>
		<path style="fill:#DDF3F5;" d="M520.969,877.354c0.623-0.794,1.318-1.531,2.078-2.196c0.185-0.162,0.374-0.319,0.566-0.472
			c0.05-0.04,0.104-0.078,0.153-0.12c-0.095,0.082-0.129,0.099-0.011,0.01c0.093-0.07,0.187-0.139,0.282-0.207
			c0.421-0.302,0.857-0.581,1.304-0.841c0.507-0.294,0.729-1.025,0.402-1.532c-0.329-0.511-0.99-0.717-1.532-0.402
			c-1.848,1.074-3.506,2.494-4.826,4.176c-0.191,0.244-0.328,0.469-0.328,0.792c0,0.275,0.122,0.603,0.328,0.792
			C519.788,877.724,520.583,877.847,520.969,877.354L520.969,877.354z"/>
	</g>
	<g>
		<path style="fill:#DDF3F5;" d="M515.678,903.403c1.878-0.249,3.67-0.834,5.292-1.827c0.5-0.306,0.734-1.017,0.402-1.532
			c-0.323-0.501-0.998-0.729-1.532-0.402c-0.359,0.22-0.728,0.423-1.108,0.604c-0.076,0.036-0.152,0.072-0.229,0.107
			c-0.054,0.025-0.386,0.195-0.119,0.054c-0.169,0.09-0.371,0.147-0.551,0.21c-0.37,0.131-0.747,0.244-1.129,0.338
			c-0.191,0.047-0.383,0.089-0.576,0.127c-0.11,0.021-0.221,0.041-0.332,0.06c-0.061,0.01-0.441,0.064-0.119,0.021
			c-0.309,0.041-0.562,0.098-0.792,0.328c-0.194,0.194-0.34,0.513-0.328,0.792C514.582,902.823,515.055,903.485,515.678,903.403
			L515.678,903.403z"/>
	</g>
	<g>
		<g>
			<path style="fill:#BAE0E3;" d="M775.228,988.982c4.88-16.222,10.48-33.146,25.328-42.934
				c14.78-9.743,32.926-11.776,48.836-19.002c6.574-2.986,12.425-6.803,17.215-12.23c4.318-4.893,7.876-10.516,10.258-16.598
				c2.203-5.626,3.41-12.033,1.79-17.975c-1.718-6.301-6.932-11.88-13.56-12.82c-3.834-0.543-7.721,0.32-11.315,1.636
				c-3.288,1.204-6.621,2.654-10.193,2.605c-7.376-0.101-11.391-9.037-8.456-15.246c2.728-5.773,8.813-9.656,14.234-12.601
				c7.238-3.932,14.825-7.18,22.024-11.199c7.55-4.215,14.896-9.05,21.081-15.138c5.745-5.655,10.51-12.909,10.834-21.191
				c0.275-7.044-2.83-14.456-9.196-17.965c-4.551-2.508-10.046-2.722-15.108-3.133c-4.702-0.382-10.457-0.561-14.227-3.795
				c-5.24-4.495-3.889-13.336-2.232-19.145c2.417-8.47,7.101-16.028,10.943-23.884c3.896-7.965,7.688-16.2,10.075-24.76
				c2.151-7.714,3.407-16.474,0.232-24.079c-2.574-6.163-7.794-11.606-14.453-13.159c-6.967-1.626-13.88,1.601-18.95,6.26
				c-5.104,4.691-8.464,10.96-11.141,17.268c-3.034,7.151-5.539,14.565-8.089,21.898c-3.295,9.472-6.395,19.01-9.54,28.532
				c-0.761,2.305-1.407,4.614-1.991,6.97c-0.517,2.083-0.961,4.359-2.084,6.216c-1.676,2.773-4.967,4.472-8.176,3.542
				c-3.332-0.966-5.546-4.397-7.647-6.933c-2.232-2.694-4.734-5.123-8.132-6.237c-6.054-1.984-12.59-0.616-17.476,3.378
				c-4.765,3.895-7.753,9.794-9.29,15.662c-2.063,7.877-1.091,16.027,0.286,23.937c0.858,4.928,1.929,9.831,2.422,14.814
				c0.492,4.978,0.529,9.991,0.279,14.984c-0.282,5.654-0.691,11.394-1.282,17.029c-0.487,4.638-1.186,9.826-3.811,13.804
				c-1.059,1.605-2.561,2.886-4.482,3.277c-2.949,0.6-5.958-0.904-8.735-1.64c-3.926-1.04-8.128-1.664-12.101-0.497
				c-3.519,1.034-6.541,3.294-8.458,6.419c-3.686,6.006-3.749,14.117-2.747,20.871c1.409,9.499,5.743,18.325,8.345,27.518
				c2.643,9.338,4.379,18.948,5.707,28.555c1.334,9.647,2.004,19.492,0.884,29.196c-1.011,8.759-3.718,17.267-9.124,24.329
				c-0.977,1.276,1.192,2.522,2.158,1.261c11.322-14.791,11.075-35.109,8.855-52.714c-1.187-9.413-2.805-18.849-5.188-28.036
				c-1.203-4.639-2.65-9.198-4.268-13.708c-1.602-4.466-3.262-8.932-4.305-13.57c-1.552-6.899-2.042-15.717,1.628-22.082
				c2.07-3.59,5.803-5.814,9.93-6.134c4.337-0.337,8.424,1.183,12.526,2.333c4.391,1.232,8.552,0.071,11.239-3.687
				c2.777-3.884,3.636-8.983,4.229-13.612c0.617-4.812,0.828-9.686,1.213-14.521c0.777-9.753,0.333-19.261-1.418-28.883
				c-1.561-8.574-3.585-17.567-1.895-26.277c1.18-6.08,3.887-12.221,8.606-16.379c4.699-4.141,12.146-5.549,17.722-2.245
				c5.635,3.339,7.984,11.651,15.138,12.484c3.019,0.351,6.048-0.893,8.109-3.1c2.78-2.976,3.348-7.217,4.331-11.01
				c1.21-4.674,2.927-9.241,4.438-13.824c1.541-4.673,3.09-9.344,4.675-14.002c2.703-7.946,5.448-15.905,8.497-23.726
				c2.509-6.436,5.52-12.966,10.291-18.063c4.65-4.969,11.583-8.97,18.569-7.143c6.948,1.817,11.953,8.308,13.535,15.097
				c1.998,8.571-0.828,18.105-3.82,26.106c-3.012,8.054-6.795,15.835-10.766,23.453c-3.89,7.463-7.954,15.214-9.081,23.665
				c-0.773,5.793-0.28,12.701,4.743,16.517c8.334,6.332,20.269,1.869,29.151,6.765c6.928,3.818,9.148,12.607,7.382,19.9
				c-2.009,8.299-8.331,14.787-14.78,19.986c-6.775,5.463-14.417,9.774-22.144,13.727c-6.675,3.415-13.755,6.271-20.005,10.452
				c-4.92,3.291-10.309,7.866-11.485,13.993c-1.162,6.056,2.524,13.474,8.679,15.2c7.273,2.041,13.833-3.406,20.893-3.939
				c7.389-0.558,13.413,4.792,15.036,11.808c1.388,6.002-0.318,12.454-2.808,17.933c-2.694,5.929-6.503,11.431-11.135,16.01
				c-5.496,5.433-12.61,8.868-19.768,11.573c-8.165,3.086-16.642,5.227-24.882,8.091c-7.871,2.737-15.618,6.137-22.203,11.326
				c-6.495,5.118-11.263,11.95-14.776,19.379c-3.398,7.186-5.747,14.802-8.032,22.397
				C772.354,989.861,774.765,990.52,775.228,988.982L775.228,988.982z"/>
		</g>
		<g>
			<path style="fill:#BAE0E3;" d="M868.488,667.356c-2.96,20.628-6.451,41.319-13.398,61.03
				c-7.577,21.497-17.093,42.261-27.487,62.529c-10.39,20.261-21.675,40.046-33.038,59.772c-2.641,4.584-5.372,9.124-7.735,13.861
				c-2.306,4.622-4.346,9.374-6.231,14.181c-3.862,9.847-7.044,19.942-10.222,30.024c-3.391,10.755-6.811,21.489-9.842,32.352
				c-3.196,11.457-6.113,22.99-8.884,34.556c-0.699,2.916-1.388,5.835-2.07,8.755c-0.366,1.564,2.043,2.232,2.41,0.664
				c5.396-23.076,11.327-45.999,18.55-68.576c6.375-19.928,12.145-40.21,22.66-58.448c11.356-19.694,22.715-39.397,33.269-59.536
				c10.506-20.047,20.232-40.546,28.211-61.741c3.722-9.886,6.933-19.868,9.319-30.164c2.391-10.313,4.211-20.752,5.807-31.214
				c0.375-2.46,0.737-4.922,1.09-7.385C871.124,666.447,868.716,665.767,868.488,667.356L868.488,667.356z"/>
		</g>
		<g>
			<path style="fill:#BAE0E3;" d="M856.195,671.331c5.061,10.018,6.748,22.206,5.63,33.308c-0.112,1.111,1.591,1.848,2.299,0.952
				c5.795-7.335,12.298-15.095,20.982-19.057c1.575-0.718,0.207-3.04-1.359-2.325c-8.883,4.052-15.598,11.973-21.527,19.478
				c0.766,0.317,1.532,0.635,2.299,0.952c1.167-11.58-0.727-24.235-5.997-34.667C857.739,668.425,855.414,669.787,856.195,671.331
				L856.195,671.331z"/>
		</g>
		<g>
			<path style="fill:#BAE0E3;" d="M843.448,684.427c8.277,13.379,12.225,29.134,11.263,44.835c-0.072,1.182,1.513,1.753,2.299,0.952
				c6.095-6.215,13.422-11.151,21.508-14.388c1.589-0.636,0.896-3.242-0.716-2.597c-8.529,3.414-16.261,8.517-22.697,15.081
				c0.766,0.317,1.532,0.635,2.299,0.952c0.99-16.141-3.124-32.443-11.63-46.194C844.863,681.596,842.533,682.947,843.448,684.427
				L843.448,684.427z"/>
		</g>
		<g>
			<path style="fill:#BAE0E3;" d="M834.364,703.916c1.581,3.389,2.123,7.249,2.623,10.921c0.536,3.935,1.015,7.838,1.869,11.721
				c2.146,9.763,4.177,19.551,6.1,29.361c0.133,0.679,1.008,1.17,1.656,0.94c4.492-1.589,9.143-2.582,13.898-2.913
				c1.719-0.12,1.733-2.814,0-2.693c-4.992,0.348-9.895,1.34-14.614,3.01c0.552,0.313,1.104,0.627,1.656,0.94
				c-1.954-9.972-4.021-19.921-6.206-29.845c-1.653-7.51-1.359-15.732-4.656-22.8C835.958,700.988,833.635,702.354,834.364,703.916
				L834.364,703.916z"/>
		</g>
		<g>
			<path style="fill:#BAE0E3;" d="M793.08,745.282c-3.409,6.026-4.698,13.056-3.672,19.9c0.97,6.472,4.27,12.198,7.83,17.574
				c3.445,5.203,7.31,10.325,9.459,16.243c0.721,1.985,1.042,3.603,1.087,5.669c0.048,2.171-0.012,4.342,0.015,6.513
				c0.027,2.138,0.115,4.286,0.47,6.398c0.281,1.669,0.776,3.523,2.006,4.76c1.375,1.383,3.251,1.397,5.018,0.845
				c2.558-0.8,4.898-2.255,7.227-3.546c6.122-3.395,13.292-4.935,20.099-6.291c7.921-1.578,15.934-2.649,23.856-4.219
				c7.661-1.518,14.967-3.965,21.141-8.884c5.527-4.404,9.724-10.318,12.174-16.934c0.603-1.628-1.999-2.33-2.597-0.716
				c-2.071,5.593-5.566,10.587-10.033,14.53c-4.969,4.386-10.96,6.96-17.351,8.521c-14.661,3.581-29.932,4.203-44.156,9.581
				c-2.396,0.906-4.549,2.14-6.791,3.363c-1.611,0.879-3.902,2.429-5.806,2.284c-1.107-0.085-1.621-1.554-1.91-2.668
				c-0.478-1.836-0.57-3.759-0.627-5.647c-0.111-3.711,0.396-7.652-0.331-11.316c-1.103-5.555-4.52-10.714-7.607-15.347
				c-3.739-5.612-7.904-11.205-9.787-17.776c-2.055-7.17-1.054-15.003,2.61-21.481C796.259,745.13,793.934,743.771,793.08,745.282
				L793.08,745.282z"/>
		</g>
		<g>
			<path style="fill:#BAE0E3;" d="M782.255,744.593c-6.412,11.33-8.944,25.021-3.562,37.253c2.754,6.258,6.862,11.836,10.033,17.881
				c3.239,6.175,5.969,12.722,7.48,19.548c1.788,8.079,0.253,16.444,1.534,24.59c0.162,1.031,1.597,1.253,2.251,0.594
				c4.848-4.891,11.806-6.757,18-9.31c3.308-1.364,6.354-3.152,9.56-4.722c3.717-1.821,7.598-3.296,11.607-4.331
				c8.274-2.135,16.866-2.07,25.316-2.935c7.689-0.788,15.157-2.506,21.888-6.43c6.856-3.996,12.612-9.799,16.546-16.689
				c0.861-1.508-1.465-2.866-2.326-1.359c-3.488,6.11-8.459,11.295-14.427,15.026c-6.666,4.167-14.152,6.003-21.911,6.782
				c-8.241,0.827-16.611,0.82-24.71,2.737c-3.966,0.939-7.812,2.325-11.519,4.012c-3.354,1.526-6.484,3.484-9.867,4.944
				c-6.888,2.972-14.622,4.882-20.063,10.371c0.75,0.198,1.5,0.396,2.251,0.594c-1.111-7.069-0.039-14.266-0.975-21.354
				c-0.887-6.715-3.42-13.27-6.289-19.368c-2.879-6.118-6.606-11.705-9.876-17.602c-3.143-5.667-4.989-11.618-4.805-18.142
				c0.206-7.302,2.613-14.411,6.189-20.73C785.435,744.442,783.109,743.083,782.255,744.593L782.255,744.593z"/>
		</g>
		<g>
			<path style="fill:#BAE0E3;" d="M736.791,852.035c4.642,14.226,9.283,28.451,13.925,42.677c2.321,7.113,4.641,14.226,6.962,21.338
				c1.135,3.477,2.269,6.955,3.404,10.432c0.813,2.491,1.755,6.608,5.338,5.392c1.384-0.47,2.582-1.516,3.796-2.299
				c1.498-0.966,3.021-1.893,4.563-2.788c3.087-1.791,6.249-3.449,9.449-5.028c6.231-3.075,12.587-5.905,18.951-8.69
				c13.284-5.814,26.75-11.211,40.367-16.194c3.771-1.38,7.554-2.728,11.348-4.043c3.501-1.214,7.083-2.277,10.475-3.779
				c2.936-1.3,5.51-3.083,7.507-5.616c1.851-2.348,3.465-5.369,3.08-8.456c-0.212-1.697-2.907-1.718-2.693,0
				c0.329,2.64-1.108,5.17-2.758,7.127c-1.769,2.098-4,3.517-6.496,4.62c-2.883,1.274-5.946,2.165-8.921,3.192
				c-3.34,1.153-6.672,2.331-9.995,3.534c-12.796,4.633-25.456,9.638-37.968,14.993c-12.313,5.269-24.867,10.535-36.302,17.564
				c-1.388,0.854-2.74,1.756-4.101,2.652c-0.41,0.27-1.164,0.927-1.676,0.664c-0.538-0.277-0.75-1.669-0.904-2.139
				c-1.083-3.319-2.166-6.639-3.249-9.958c-2.218-6.797-4.435-13.593-6.653-20.39c-4.951-15.174-9.902-30.348-14.853-45.522
				C738.853,849.678,736.252,850.38,736.791,852.035L736.791,852.035z"/>
		</g>
		<g>
			<path style="fill:#BAE0E3;" d="M751.738,852.349c2.342,17.154,5.965,34.126,10.865,50.732c1.393,4.722,2.892,9.413,4.485,14.071
				c0.558,1.631,3.16,0.93,2.597-0.716c-5.602-16.382-9.976-33.176-13.046-50.216c-0.873-4.846-1.638-9.71-2.304-14.588
				C754.102,849.924,751.506,850.652,751.738,852.349L751.738,852.349z"/>
		</g>
		<g>
			<path style="fill:#BAE0E3;" d="M771.077,916.44c13.456-3.232,25.596-10.077,37.482-16.938
				c6.042-3.488,12.075-7.004,18.323-10.114c3.095-1.54,6.24-2.983,9.458-4.248c3.508-1.379,7.11-2.474,10.676-3.688
				c3.642-1.24,7.218-2.708,10.621-4.508c2.909-1.54,5.841-3.456,7.593-6.32c0.907-1.482-1.421-2.837-2.325-1.359
				c-1.536,2.511-4.244,4.106-6.788,5.44c-2.943,1.543-6.011,2.834-9.149,3.922c-3.521,1.221-7.094,2.283-10.575,3.618
				c-3.187,1.223-6.315,2.603-9.387,4.09c-12.18,5.898-23.467,13.446-35.56,19.508c-6.741,3.379-13.738,6.236-21.084,8
				C768.677,914.248,769.39,916.845,771.077,916.44L771.077,916.44z"/>
		</g>
	</g>
	<g>
		<path style="fill:#BAE0E3;" d="M785.38,742.916c-2.39-12.239-4.779-24.479-7.169-36.718c-1.211-6.201-2.422-12.403-3.632-18.604
			c-0.605-3.101-1.211-6.201-1.816-9.302c-0.554-2.84-0.98-5.747-1.752-8.538c-0.752-2.717-2.183-4.958-4.05-7.042
			c-1.857-2.072-3.93-3.949-5.274-6.419c-0.654,0.505-1.308,1.009-1.962,1.514c2.869,3.098,5.738,6.196,8.608,9.294
			c0.735,0.793,2.155,0.18,2.133-0.884c-0.085-4.093-0.17-8.186-0.255-12.278c-0.033-1.606-2.532-1.611-2.499,0
			c0.085,4.093,0.17,8.186,0.255,12.278c0.711-0.294,1.422-0.589,2.133-0.883c-2.869-3.098-5.739-6.196-8.608-9.294
			c-0.987-1.065-2.627,0.293-1.962,1.514c2.331,4.284,7.015,6.974,8.689,11.636c0.952,2.652,1.312,5.542,1.85,8.298
			c0.589,3.019,1.179,6.038,1.768,9.057c2.374,12.158,4.747,24.316,7.121,36.474c1.338,6.854,2.676,13.708,4.015,20.562
			C783.278,745.157,785.687,744.489,785.38,742.916L785.38,742.916z"/>
	</g>
	<g>
		<path style="fill:#BAE0E3;" d="M795.325,743.374c-0.188-9.327-0.004-18.66,0.57-27.972c0.285-4.614,0.664-9.223,1.137-13.821
			c0.237-2.31,0.577-4.615,0.771-6.928c0.115-1.364,0.021-2.711-0.583-3.957c-0.806-1.664-2.261-3.027-3.4-4.458
			c-1.583-1.99-3.107-4.025-4.791-5.932c-1.067-1.208-2.828,0.565-1.767,1.767c1.378,1.561,2.652,3.205,3.934,4.844
			c1.13,1.444,2.483,2.805,3.474,4.346c0.723,1.125,0.739,2.278,0.616,3.579c-0.206,2.167-0.503,4.328-0.728,6.494
			c-0.919,8.868-1.488,17.773-1.705,26.686c-0.125,5.117-0.13,10.236-0.027,15.353C792.858,744.98,795.357,744.986,795.325,743.374
			L795.325,743.374z"/>
	</g>
	<g>
		<path style="fill:#BAE0E3;" d="M767.428,844.755c-0.183-17.031-5.558-33.322-9.118-49.821
			c-3.652-16.929-5.469-34.239-5.451-51.557c0.01-9.719,0.607-19.431,1.765-29.08c0.191-1.593-2.309-1.579-2.499,0
			c-2.048,17.067-2.315,34.334-0.767,51.455c0.777,8.588,1.997,17.139,3.665,25.599c1.65,8.366,3.85,16.604,5.794,24.903
			c2.195,9.366,4.007,18.851,4.111,28.5C764.946,846.362,767.445,846.367,767.428,844.755L767.428,844.755z"/>
	</g>
	<g>
		<path style="fill:#BAE0E3;" d="M746.773,706.031c1.521,2.988,3.119,5.936,4.791,8.843c0.511,0.889,1.613,0.716,2.158,0
			c2.217-2.916,4.743-5.595,7.484-8.024c1.206-1.068-0.567-2.83-1.767-1.767c-2.909,2.577-5.524,5.438-7.875,8.529
			c0.719,0,1.438,0,2.158,0c-1.672-2.906-3.27-5.854-4.791-8.843C748.201,703.336,746.044,704.599,746.773,706.031L746.773,706.031z
			"/>
	</g>
	<g>
		<path style="fill:#BAE0E3;" d="M753.602,715.09c0.664-3.645,1.329-7.289,1.993-10.934c0.121-0.663-0.182-1.347-0.873-1.537
			c-0.606-0.167-1.415,0.205-1.537,0.873c-0.664,3.645-1.329,7.29-1.993,10.934c-0.121,0.663,0.181,1.347,0.873,1.537
			C752.671,716.129,753.48,715.757,753.602,715.09L753.602,715.09z"/>
	</g>
	<g>
		<path style="fill:#BAE0E3;" d="M809.753,755.56c0.618-11.669,4.408-22.91,8.389-33.8c4.085-11.177,8.663-22.263,11.292-33.904
			c1.393-6.169,2.205-12.492,1.947-18.824c-0.065-1.602-2.565-1.611-2.499,0c0.474,11.604-2.7,22.94-6.459,33.806
			c-3.913,11.312-8.638,22.359-11.861,33.902c-1.716,6.147-2.97,12.438-3.308,18.821
			C807.169,757.167,809.669,757.163,809.753,755.56L809.753,755.56z"/>
	</g>
	<g>
		<path style="fill:#BAE0E3;" d="M822.797,663.855c1.115,0.971,2.23,1.941,3.345,2.911c0.543,0.473,1.086,0.946,1.63,1.419
			c0.527,0.459,1.055,1.026,1.684,1.342c1.597,0.802,2.636-0.549,3.585-1.625c0.967-1.096,1.933-2.193,2.9-3.289
			c0.446-0.506,0.498-1.269,0-1.767c-0.455-0.455-1.319-0.508-1.767,0c-0.798,0.905-1.595,1.809-2.393,2.714
			c-0.387,0.439-0.773,0.877-1.16,1.316c-0.093,0.105-0.183,0.212-0.279,0.314c-0.135,0.144-0.338,0.213,0.021,0.153
			c0.374-0.062,0.079-0.138-0.14-0.328c-1.89-1.639-3.774-3.285-5.661-4.927c-0.509-0.443-1.267-0.5-1.767,0
			C822.345,662.541,822.286,663.411,822.797,663.855L822.797,663.855z"/>
	</g>
	<g>
		<path style="fill:#BAE0E3;" d="M831.262,668.497c1.135-3.155,1.257-6.632,0.402-9.869c-0.172-0.652-0.891-1.05-1.537-0.873
			c-0.658,0.181-1.046,0.882-0.873,1.537c0.749,2.834,0.59,5.785-0.402,8.541c-0.229,0.635,0.258,1.368,0.873,1.537
			C830.419,669.561,831.033,669.135,831.262,668.497L831.262,668.497z"/>
	</g>
	<g>
		<path style="fill:#BAE0E3;" d="M797.666,691.617c0.055-4.035,0.24-8.067,0.555-12.091c0.053-0.674-0.612-1.249-1.25-1.249
			c-0.72,0-1.196,0.574-1.249,1.249c-0.315,4.023-0.5,8.055-0.555,12.091C795.145,693.226,797.644,693.227,797.666,691.617
			L797.666,691.617z"/>
	</g>
	<g>
		<path style="fill:#BAE0E3;" d="M797.273,693.116c2.555-2.986,5.416-5.729,8.546-8.105c0.536-0.407,0.818-1.077,0.448-1.709
			c-0.309-0.529-1.169-0.859-1.709-0.448c-3.309,2.512-6.35,5.338-9.051,8.496c-0.439,0.512-0.503,1.264,0,1.767
			C795.955,693.565,796.832,693.63,797.273,693.116L797.273,693.116z"/>
	</g>
	<g>
		<path style="fill:#BAE0E3;" d="M770.169,668.588c1.95-3.429,4.183-6.692,6.698-9.731c0.43-0.519,0.509-1.258,0-1.767
			c-0.443-0.443-1.335-0.522-1.767,0c-2.652,3.204-5.033,6.621-7.089,10.237C767.215,668.727,769.373,669.987,770.169,668.588
			L770.169,668.588z"/>
	</g>
	<rect x="327.28" y="396.265" style="fill:#BAE0E3;" width="14.813" height="65.2"/>
	
		<rect x="327.28" y="396.265" transform="matrix(-1.836970e-16 1 -1 -1.836970e-16 763.5515 94.1788)" style="fill:#BAE0E3;" width="14.813" height="65.2"/>
	<g>
		<path style="fill:#7D7D7D;" d="M609.497,478.79c8.572,3.13,17.934,3.615,26.794,1.443c1.179-0.289,0.68-2.109-0.502-1.82
			c-8.55,2.096-17.525,1.575-25.79-1.443C608.856,476.554,608.364,478.377,609.497,478.79L609.497,478.79z"/>
	</g>
</g>
</svg>
